<svg width="1577" height="1364" viewBox="0 0 1577 1364" fill="none" xmlns="http://www.w3.org/2000/svg">
<path d="M513.328 880.854C479.211 895.143 466.253 930.17 488.552 950.166C534.429 991.313 723.296 970.987 732.183 943.096C740.937 915.617 584.517 851.03 513.328 880.854Z" stroke="#F2F3FA" stroke-width="2.89162" stroke-miterlimit="10"/>
<path d="M597.863 789.333C675.792 762.028 806.643 956.434 752.631 1002.33C719.423 1030.55 639.033 1027.03 573.476 1017.75C511.932 1009.05 423.993 973.448 402.298 914.329C390.81 882.944 397.706 838.228 422.036 822.568C440.866 810.452 466.286 815.903 471.894 813.888C498.627 824.98 502.55 829.291 523.849 831.893C551.689 835.296 576.432 796.841 597.863 789.333Z" stroke="#F2F3FA" stroke-width="2.89162" stroke-miterlimit="10"/>
<path d="M676.932 693.716C767.439 708.169 865.792 992.123 767.612 1057.47C705.086 1099.09 596.08 1080.71 520.1 1058.71C450.306 1038.5 334.089 971.053 310.577 874.395C296.909 818.232 313.517 739.224 361.104 716.371C399.036 698.159 447.911 713.819 456.516 715.025C507.381 742.396 511.494 756.321 549.369 765.695C599.515 778.092 639.107 687.645 676.932 693.716Z" stroke="#F2F3FA" stroke-width="2.89162" stroke-miterlimit="10"/>
<path d="M750.269 598.734C850.199 625.379 919.209 1028.22 776.862 1113.24C684.993 1168.1 547.337 1135.19 460.992 1100.29C382.882 1068.74 238.875 969.426 213.125 835.09C197.59 754.075 223.514 640.947 294.431 610.801C351.416 586.569 424.192 611.437 435.39 616.789C513.683 654.228 514.674 683.978 569.181 700.125C641.585 721.632 697.934 584.809 750.269 598.734Z" stroke="#F2F3FA" stroke-width="2.89162" stroke-miterlimit="10"/>
<path d="M819.196 508.073C929.863 546.511 968.034 1068.22 781.702 1173.33C660.365 1241.16 494.118 1194.08 397.483 1146.22C310.965 1103.37 139.35 972.21 111.229 800.103C93.9435 694.311 129.068 547.023 223.324 509.534C299.395 479.306 395.493 514.763 409.838 522.848C510.759 579.738 513.369 616.079 584.493 638.883C679.17 669.5 752.953 485.07 819.196 508.073Z" stroke="#F2F3FA" stroke-width="2.89162" stroke-miterlimit="10"/>
<path d="M149.12 409.474C244.243 373.257 363.606 419.253 381.189 430.122C504.466 506.338 509.025 549.113 596.74 578.788C713.708 618.358 805.363 385.852 884.968 418.559C1007.25 468.8 1014.11 1110.06 783.387 1234.57C632.839 1315.82 437.678 1254.17 330.811 1193.28C235.902 1139.2 36.8017 976.182 6.24456 766.273C-12.7504 635.711 31.5079 454.247 149.12 409.474Z" stroke="#F2F3FA" stroke-width="2.89162" stroke-miterlimit="10"/>
<path d="M1178.45 343.4C1140.98 343.086 1096.04 278.094 1129.65 267.241C1149.06 260.964 1200.44 270.892 1220.63 288.558C1249.05 313.418 1204.23 343.623 1178.45 343.4Z" stroke="#F2F3FA" stroke-width="2.89162" stroke-miterlimit="10"/>
<path d="M1076.62 276.343C1080.29 267.621 1097.46 263.747 1113.12 253.126C1144.9 231.569 1149.46 221.328 1172.03 208.328C1180.84 203.248 1192.68 196.575 1204.24 199.631C1221.95 204.314 1226.37 224.582 1248.84 260.278C1277.97 306.662 1289.01 318.655 1280.68 343.234C1278.74 348.95 1276.23 367.459 1262.2 378.749C1242.77 394.359 1219.99 382.301 1191.51 392.633C1157.31 405.022 1140.36 427.074 1125.52 417.328C1115.06 410.465 1114.68 391.667 1106.85 358.935C1100.88 334 1097.13 317.639 1089.88 304.292C1081.19 288.401 1072.54 286.039 1076.62 276.343Z" stroke="#F2F3FA" stroke-width="2.89162" stroke-miterlimit="10"/>
<path d="M1019.35 294.521C1019.98 279.06 1044.26 271.577 1064.27 249.236C1105.31 203.405 1086.3 170.657 1119.19 137.174C1133.15 122.96 1155.05 109.192 1177 111.86C1208.16 115.651 1218.62 147.837 1266.58 213.093C1329.28 298.411 1355.99 315.12 1350.13 360.587C1348.93 369.854 1347.77 405.435 1323.26 426.851C1290.59 455.412 1251.41 429.428 1200.25 450.894C1143.09 474.846 1121.72 526.053 1102.44 515.456C1089.06 508.097 1094.19 478.463 1083.9 420.665C1076.61 379.583 1072.11 355.574 1057.55 335.908C1039.17 311.106 1018.66 311.312 1019.35 294.521Z" stroke="#F2F3FA" stroke-width="2.89162" stroke-miterlimit="10"/>
<path d="M962.014 312.502C959.536 290.342 990.977 279.2 1015.36 245.139C1065.58 175.018 1022.29 120.21 1066.3 65.8142C1085.13 42.5396 1117.44 21.718 1149.71 23.8902C1194.43 26.8965 1210.95 70.7532 1284.33 165.71C1380.79 289.78 1422.33 311.626 1419.6 377.741C1419.07 390.634 1419.31 443.196 1384.35 474.779C1338.42 516.266 1282.77 476.307 1209.02 508.973C1128.83 544.488 1103.13 624.825 1079.36 613.411C1063.05 605.515 1073.5 565.078 1060.94 482.213C1052.26 424.984 1047.04 393.442 1025.2 367.343C997.055 333.711 964.665 336.371 962.014 312.502Z" stroke="#F2F3FA" stroke-width="2.89162" stroke-miterlimit="10"/>
<path d="M904.55 330.433C898.992 301.599 937.502 286.758 966.325 241.001C1025.61 146.548 957.942 69.8942 1013.28 -5.5871C1036.93 -37.8808 1079.72 -65.764 1122.29 -64.1287C1180.61 -61.8822 1202.94 -6.20654 1301.91 118.285C1431.83 281.323 1488.36 308.248 1488.87 394.855C1488.97 411.373 1490.6 480.867 1445.23 522.658C1385.98 577.021 1313.97 523.113 1217.58 567.011C1114.35 614.039 1084.31 723.581 1056.15 711.325C1036.9 702.917 1052.68 651.643 1037.84 543.72C1027.76 470.336 1021.84 431.303 992.728 398.737C954.787 356.317 910.529 361.438 904.55 330.433Z" stroke="#F2F3FA" stroke-width="2.89162" stroke-miterlimit="10"/>
<path d="M846.978 348.355C856.286 386.513 912.395 378.914 960.122 430.122C996.518 469.163 1003.13 515.671 1014.63 605.218C1031.7 738.192 1010.62 800.31 1032.8 809.221C1065.4 822.329 1099.76 683.573 1226.05 625.04C1345.03 569.901 1433.56 637.875 1506.02 570.529C1561.88 518.603 1558.78 432.178 1558.05 411.951C1554.2 304.878 1482.76 272.849 1319.38 70.844C1194.79 -83.1828 1166.7 -150.661 1094.74 -152.156C1041.88 -153.254 988.573 -118.293 960.122 -76.9966C893.5 19.6367 985.666 118.178 917.177 236.855C883.986 294.364 838.315 312.857 846.978 348.355Z" stroke="#F2F3FA" stroke-width="2.89162" stroke-miterlimit="10"/>
<path d="M1323.13 962.513C1313.35 957.558 1292.82 967.105 1291.01 981.98C1288.95 998.854 1312.18 1012.81 1322.39 1008.48C1334.46 1003.34 1336.11 969.071 1323.13 962.513Z" stroke="#F2F3FA" stroke-width="2.89162" stroke-miterlimit="10"/>
<path d="M1350.68 1052.17C1367.35 1036.58 1374.63 1007.98 1382.97 958.953C1391.23 910.34 1389.93 875.535 1382.67 873.008C1378.71 871.645 1367.51 882.308 1357.89 890.121C1339.9 904.707 1309.09 903.088 1301.2 904.665C1272.29 910.447 1263.8 921.184 1251.72 941.75C1246.13 951.248 1233.09 972.309 1227.35 997.087C1218.59 1034.61 1179.36 1046.17 1184.14 1061.21C1188.16 1073.77 1227.03 1076.81 1252.24 1077.17C1288.36 1077.68 1324.92 1076.23 1350.68 1052.17Z" stroke="#F2F3FA" stroke-width="2.89162" stroke-miterlimit="10"/>
<path d="M1379.57 1094.07C1406.97 1066.22 1417.74 1019.48 1434.34 932.07C1451.21 844.241 1451.1 783.998 1442.79 781.751C1436.56 780.033 1416.36 801.747 1399.2 817.266C1366.85 846.644 1308.94 841.812 1297.01 843.695C1242.59 852.103 1229.17 872.248 1208.08 910.323C1199.29 926.181 1175.19 964.834 1164.2 1010.48C1147.3 1080.41 1067.15 1098.72 1073.78 1124.65C1079.32 1146.24 1153.65 1149.55 1200.42 1147.78C1266.45 1145.21 1333.28 1141.14 1379.57 1094.07Z" stroke="#F2F3FA" stroke-width="2.89162" stroke-miterlimit="10"/>
<path d="M1408.3 1135.69C1446.45 1095.59 1460.6 1030.68 1485.56 904.913C1510.9 777.845 1512.08 692.303 1502.75 690.173C1494.2 688.19 1465.04 720.897 1440.38 744.163C1393.76 788.408 1308.67 780.273 1292.69 782.404C1212.76 793.075 1194.36 822.915 1164.31 878.583C1152.32 900.792 1117.16 957.046 1100.92 1023.54C1075.88 1125.89 954.812 1150.93 963.277 1187.75C970.346 1218.38 1080.15 1222.09 1148.46 1218.03C1244.39 1212.62 1341.6 1205.83 1408.3 1135.69Z" stroke="#F2F3FA" stroke-width="2.89162" stroke-miterlimit="10"/>
<path d="M1436.95 1177.3C1485.87 1124.93 1503.37 1041.84 1536.69 877.724C1570.55 711.432 1573.02 600.617 1562.63 598.561C1551.77 596.389 1513.62 639.956 1481.48 670.986C1420.49 729.999 1308.32 718.642 1288.3 721.079C1182.87 733.872 1159.32 773.484 1120.46 846.801C1105.21 875.345 1059.05 949.216 1037.56 1036.57C1004.38 1171.32 842.386 1203.11 852.71 1250.82C861.291 1290.46 1006.56 1294.42 1096.43 1288.26C1222.22 1279.78 1349.86 1270.52 1436.95 1177.3Z" stroke="#F2F3FA" stroke-width="2.89162" stroke-miterlimit="10"/>
<path d="M1283.86 659.729C1152.94 674.596 1124.47 724.151 1076.57 815.003C1058.15 849.931 1000.9 941.37 974.162 1049.57C932.869 1216.75 729.928 1255.26 742.093 1313.86C752.202 1362.59 932.935 1366.72 1044.36 1358.46C1200.05 1346.9 1358.1 1335.19 1465.55 1218.88C1525.26 1154.25 1546.1 1053.01 1587.78 850.518C1630.09 644.994 1633.87 508.931 1622.47 506.933C1609.25 504.62 1562.18 558.966 1522.54 597.785C1447.19 671.556 1307.94 656.995 1283.86 659.729Z" stroke="#F2F3FA" stroke-width="2.89162" stroke-miterlimit="10"/>
<path d="M219.319 262.459C234.184 319.448 340.886 292.679 467.905 421.036C513.419 467.032 543.934 515.142 604.173 522.625C610.252 523.377 670.598 529.976 713.188 491.24C766.77 442.51 734.066 374.909 796.6 280.629C819.634 245.899 823.466 255.983 840.371 228.596C912.519 111.686 802.481 -6.99945 865.973 -125.726C895.201 -180.378 938.65 -192.924 934.52 -200.06C916.698 -230.677 179.148 108.894 219.319 262.459Z" stroke="#F2F3FA" stroke-width="2.89162" stroke-miterlimit="10"/>
<path d="M620.691 444.716C624.341 444.22 664.131 447.193 691.426 419.806C725.939 385.224 701.337 337.61 740.879 273.328C755.431 249.657 757.454 256.074 767.811 237.351C811.995 157.451 732.695 77.0715 771.527 -1.14363C789.498 -37.3522 817.867 -45.6528 813.646 -49.1877C794.561 -65.3098 307.736 172.862 345.974 276.499C360.311 315.368 438.578 301.575 528.135 385.29C560.699 415.709 582.75 449.861 620.691 444.716Z" stroke="#F2F3FA" stroke-width="2.89162" stroke-miterlimit="10"/>
<path d="M637.208 366.798C638.248 364.18 657.706 364.238 669.664 348.372C685.191 327.789 668.657 300.369 685.158 266.035C691.211 253.431 691.459 256.124 695.258 246.105C711.569 203.017 662.843 161.192 677.089 123.431C683.754 105.657 696.142 102.626 692.838 101.676C668.69 105.103 436.819 237.062 472.588 290.54C486.553 311.436 536.543 310.437 588.325 349.544C608.005 364.411 620.889 375.297 637.208 366.798Z" stroke="#F2F3FA" stroke-width="2.89162" stroke-miterlimit="10"/>
<path d="M653.725 288.888C640.908 251.433 590.447 238.697 571.964 252.548C544.711 272.998 567.959 299.625 599.218 304.581C622.582 308.256 668.393 331.754 653.725 288.888Z" stroke="#F2F3FA" stroke-width="2.89162" stroke-miterlimit="10"/>
</svg>
