<svg width="331" height="37" viewBox="0 0 331 37" fill="none" xmlns="http://www.w3.org/2000/svg">
<path d="M4 12.5H26.7V4L4 12.5Z" fill="#DADADA"/>
<path d="M26.7002 4V34L37.4002 0L26.7002 4Z" fill="white"/>
<path d="M26.6996 12.5H18.0996L26.6996 34V12.5Z" fill="#DADADA"/>
<path d="M4 12.5L20.3 18L18.1 12.5H4Z" fill="#B6B6B6"/>
<path d="M56 26.1C55.9 26.2 55.7 26.4 55.4 26.6C55.1 26.8 54.7 27 54.3 27.2C53.8 27.4 53.3 27.5 52.6 27.7C51.9 27.8 51.2 27.9 50.3 27.9C48.6 27.9 47.2 27.6 45.9 27.1C44.7 26.6 43.7 25.8 42.9 24.8C42.1 23.8 41.5 22.7 41.1 21.4C40.7 20.1 40.5 18.6 40.5 17.1C40.5 15.5 40.7 14.1 41.1 12.7C41.5 11.4 42.1 10.2 42.9 9.20001C43.7 8.20001 44.7 7.50001 45.9 6.90001C47.1 6.40001 48.5 6.10001 50.2 6.10001C51 6.10001 51.7 6.20001 52.4 6.30001C53.1 6.40001 53.6 6.60001 54.1 6.80001C54.6 7.00001 55 7.20001 55.3 7.40001C55.6 7.60001 55.9 7.80001 56 7.90001C56.2 8.10001 56.3 8.30001 56.5 8.50001C56.6 8.70001 56.7 9.00001 56.7 9.20001C56.7 9.60001 56.5 10 56.2 10.4C55.9 10.8 55.5 11.2 55.2 11.6L54.4 10.8C54.1 10.5 53.7 10.3 53.4 10.1C53 9.90001 52.6 9.70001 52.1 9.60001C51.6 9.50001 51.1 9.40001 50.5 9.40001C49.4 9.40001 48.6 9.60001 47.8 10C47.1 10.4 46.5 11 46.1 11.7C45.7 12.4 45.4 13.2 45.2 14C45 14.9 44.9 15.8 44.9 16.7C44.9 17.7 45 18.6 45.2 19.5C45.4 20.4 45.7 21.2 46.2 21.9C46.7 22.6 47.3 23.1 48 23.5C48.7 23.9 49.7 24.1 50.8 24.1C51.4 24.1 51.9 24 52.4 23.9C52.9 23.8 53.3 23.6 53.7 23.4C54.1 23.2 54.4 23 54.7 22.7C55 22.5 55.2 22.3 55.4 22.1C55.5 22.2 55.7 22.4 55.8 22.6C56 22.8 56.1 23 56.3 23.3C56.4 23.5 56.6 23.8 56.7 24C56.8 24.2 56.9 24.4 56.9 24.6C56.9 24.9 56.8 25.1 56.7 25.3C56.4 25.7 56.2 25.9 56 26.1ZM72 23.8C72 25.4 72.2 26.6 72.7 27.4C72.3 27.5 72 27.7 71.7 27.7C71.4 27.8 71 27.8 70.7 27.8C69.9 27.8 69.4 27.7 69 27.4C68.6 27.1 68.4 26.7 68.3 26.1C67.8 26.6 67.2 27 66.5 27.3C65.7 27.6 64.8 27.8 63.7 27.8C63.1 27.8 62.6 27.7 62 27.6C61.4 27.4 60.9 27.2 60.5 26.8C60 26.4 59.7 26 59.4 25.4C59.1 24.8 59 24.1 59 23.2C59 22.1 59.3 21.3 59.8 20.6C60.3 19.9 61 19.4 61.7 19C62.5 18.6 63.3 18.4 64.2 18.2C65.1 18.1 65.9 18 66.7 17.9H68.1V17.3C68.1 16.5 67.9 15.9 67.5 15.6C67.1 15.3 66.4 15.1 65.4 15.1C64.5 15.1 63.7 15.2 63 15.5C62.3 15.8 61.6 16.1 61 16.5C60.7 16.1 60.5 15.8 60.3 15.3C60.1 14.9 60 14.6 60 14.3C60 14 60.2 13.7 60.5 13.5C60.8 13.2 61.3 13 61.8 12.8C62.4 12.6 63 12.4 63.7 12.3C64.4 12.2 65.2 12.1 66 12.1C67.1 12.1 68.1 12.2 68.9 12.4C69.7 12.6 70.3 13 70.8 13.5C71.3 14 71.6 14.6 71.8 15.3C72 16 72.1 16.9 72.1 17.8L72 23.8ZM68 20.1H67.2C66.7 20.1 66.2 20.2 65.7 20.3C65.2 20.4 64.7 20.5 64.3 20.7C63.9 20.9 63.6 21.2 63.3 21.5C63 21.8 62.9 22.3 62.9 22.8C62.9 23.4 63.1 23.9 63.4 24.3C63.7 24.7 64.3 24.9 65.1 24.9C65.5 24.9 65.9 24.8 66.2 24.7C66.6 24.6 66.9 24.5 67.1 24.3C67.4 24.1 67.6 24 67.7 23.8C67.9 23.6 67.9 23.4 67.9 23.3L68 20.1ZM79.8 14C80.1 13.6 80.7 13.2 81.4 12.8C82.1 12.4 83 12.2 84.1 12.2C84.9 12.2 85.6 12.3 86.3 12.6C87 12.9 87.6 13.3 88.2 13.9C88.7 14.5 89.2 15.3 89.5 16.2C89.8 17.2 90 18.3 90 19.7C90 21.3 89.8 22.7 89.4 23.7C89 24.8 88.5 25.6 87.9 26.2C87.3 26.8 86.6 27.2 85.9 27.5C85.2 27.8 84.4 27.9 83.7 27.9C83.1 27.9 82.6 27.8 82.1 27.7C81.7 27.6 81.3 27.4 81 27.2C80.7 27 80.4 26.9 80.3 26.7L80 26.4V34H75.7V12.6C75.8 12.6 75.9 12.6 76.1 12.5H77.1C77.8 12.5 78.4 12.6 78.9 12.8C79.4 13 79.7 13.4 79.8 14ZM85.4 19.8C85.4 19.2 85.3 18.6 85.2 18C85.1 17.5 84.9 17 84.7 16.6C84.5 16.2 84.1 15.9 83.7 15.7C83.3 15.5 82.8 15.4 82.2 15.4C81.3 15.4 80.7 15.6 80.4 15.9C80.1 16.2 79.9 16.6 79.9 17V23.6C80.1 23.8 80.4 24 80.8 24.2C81.2 24.4 81.7 24.5 82.3 24.5C83.4 24.5 84.1 24.1 84.6 23.2C85.2 22.4 85.4 21.3 85.4 19.8ZM93.2 25.1C93.1 24.7 93 24.2 92.9 23.8C92.9 23.3 92.8 22.9 92.8 22.4V7.90001C92.9 7.90001 93.1 7.90001 93.3 7.80001H94.3C94.6 7.80001 95 7.80001 95.3 7.90001C95.6 8.00001 95.9 8.10001 96.2 8.30001C96.5 8.50001 96.7 8.70001 96.9 9.10001C97.1 9.40001 97.2 9.80001 97.2 10.4V12.6H101.6V15.8H97.2V22.5C97.2 24 97.8 24.7 99 24.7C99.3 24.7 99.6 24.7 99.8 24.6C100.1 24.5 100.3 24.4 100.5 24.3C100.7 24.2 100.9 24.1 101 23.9C101.1 23.7 101.3 23.7 101.3 23.6C101.6 24.1 101.9 24.5 102 24.8C102.2 25.1 102.3 25.5 102.3 25.7C102.3 26 102.2 26.2 102 26.5C101.8 26.8 101.5 27 101.1 27.2C100.7 27.4 100.2 27.6 99.7 27.7C99.1 27.8 98.5 27.9 97.9 27.9C96.6 27.9 95.6 27.6 94.9 27.1C94 26.6 93.5 26 93.2 25.1ZM112.2 24.7C112.7 24.7 113.2 24.6 113.6 24.5C114 24.4 114.4 24.2 114.7 24.1C115 23.9 115.3 23.8 115.5 23.6C115.7 23.4 115.9 23.2 116.1 23.1C116.4 23.4 116.6 23.8 116.9 24.3C117.2 24.8 117.3 25.2 117.3 25.5C117.3 26 117 26.4 116.5 26.8C116.1 27.1 115.4 27.4 114.6 27.7C113.8 27.9 112.9 28.1 111.8 28.1C110.8 28.1 109.9 28 108.9 27.7C108 27.4 107.1 27 106.4 26.4C105.7 25.8 105.1 24.9 104.6 23.9C104.1 22.8 103.9 21.5 103.9 19.9C103.9 18.6 104.1 17.5 104.5 16.5C104.9 15.6 105.4 14.8 106.1 14.1C106.8 13.5 107.5 13 108.4 12.7C109.3 12.4 110.1 12.3 111 12.3C112.2 12.3 113.2 12.5 114 12.8C114.8 13.2 115.5 13.7 116 14.3C116.5 14.9 116.9 15.6 117.1 16.4C117.3 17.2 117.4 18 117.4 18.9V20.7H108.2C108.3 21.8 108.6 22.8 109.3 23.6C109.9 24.3 110.9 24.7 112.2 24.7ZM113.7 18.4C113.7 17.4 113.5 16.6 113.1 16C112.7 15.4 112 15.1 111 15.1C110.1 15.1 109.5 15.4 108.9 16C108.4 16.6 108.1 17.4 108.1 18.5L113.7 18.4ZM124.9 14C125 13.8 125.2 13.6 125.4 13.4C125.6 13.2 125.9 13 126.2 12.8C126.5 12.6 126.8 12.5 127.2 12.3C127.6 12.2 128 12.1 128.4 12.1C128.7 12.1 128.9 12.1 129.2 12.2C129.5 12.2 129.7 12.3 130 12.4C130.2 12.5 130.4 12.7 130.6 12.9C130.7 13.1 130.8 13.3 130.8 13.6C130.8 14.1 130.7 14.6 130.5 15.2C130.3 15.8 130 16.3 129.8 16.7C129.4 16.4 129.1 16.2 128.7 16C128.3 15.8 127.9 15.8 127.4 15.8C126.8 15.8 126.2 16 125.8 16.4C125.4 16.8 125.1 17.2 125.1 17.7V27.8H120.8V12.6C120.9 12.6 121 12.6 121.2 12.5H122.2C122.9 12.5 123.4 12.6 123.9 12.9C124.5 13.1 124.8 13.5 124.9 14ZM137 14C137.1 13.8 137.3 13.6 137.5 13.4C137.7 13.2 138 13 138.3 12.8C138.6 12.6 138.9 12.5 139.3 12.3C139.7 12.2 140.1 12.1 140.5 12.1C140.8 12.1 141 12.1 141.3 12.2C141.6 12.2 141.8 12.3 142.1 12.4C142.3 12.5 142.5 12.7 142.7 12.9C142.8 13.1 142.9 13.3 142.9 13.6C142.9 14.1 142.8 14.6 142.6 15.2C142.4 15.8 142.1 16.3 141.9 16.7C141.5 16.4 141.2 16.2 140.8 16C140.4 15.8 140 15.8 139.5 15.8C138.9 15.8 138.3 16 137.9 16.4C137.5 16.8 137.2 17.2 137.2 17.7V27.8H132.9V12.6C133 12.6 133.1 12.6 133.3 12.5H134.3C135 12.5 135.5 12.6 136 12.9C136.6 13.1 136.9 13.5 137 14ZM157.3 23.8C157.3 25.4 157.5 26.6 158 27.4C157.6 27.5 157.3 27.7 157 27.7C156.7 27.8 156.3 27.8 156 27.8C155.2 27.8 154.7 27.7 154.3 27.4C153.9 27.1 153.7 26.7 153.6 26.1C153.1 26.6 152.5 27 151.8 27.3C151 27.6 150.1 27.8 149 27.8C148.4 27.8 147.9 27.7 147.3 27.6C146.7 27.4 146.2 27.2 145.8 26.8C145.3 26.4 145 26 144.7 25.4C144.4 24.8 144.3 24.1 144.3 23.2C144.3 22.1 144.6 21.3 145.1 20.6C145.6 19.9 146.3 19.4 147 19C147.8 18.6 148.6 18.4 149.5 18.2C150.4 18.1 151.2 18 152 17.9H153.4V17.3C153.4 16.5 153.2 15.9 152.8 15.6C152.4 15.3 151.7 15.1 150.7 15.1C149.8 15.1 149 15.2 148.3 15.5C147.6 15.8 146.9 16.1 146.3 16.5C146 16.1 145.8 15.8 145.6 15.3C145.4 14.9 145.3 14.6 145.3 14.3C145.3 14 145.5 13.7 145.8 13.5C146.1 13.2 146.6 13 147.1 12.8C147.7 12.6 148.3 12.4 149 12.3C149.7 12.2 150.5 12.1 151.3 12.1C152.4 12.1 153.4 12.2 154.2 12.4C155 12.6 155.6 13 156.1 13.5C156.6 14 156.9 14.6 157.1 15.3C157.3 16 157.4 16.9 157.4 17.8L157.3 23.8ZM153.3 20.1H152.5C152 20.1 151.5 20.2 151 20.3C150.5 20.4 150 20.5 149.6 20.7C149.2 20.9 148.9 21.2 148.6 21.5C148.3 21.8 148.2 22.3 148.2 22.8C148.2 23.4 148.4 23.9 148.7 24.3C149 24.7 149.6 24.9 150.4 24.9C150.8 24.9 151.2 24.8 151.5 24.7C151.9 24.6 152.2 24.5 152.4 24.3C152.7 24.1 152.9 24 153 23.8C153.2 23.6 153.2 23.4 153.2 23.3L153.3 20.1Z" fill="white"/>
<path d="M185.7 9.7L183.1 15L177.3 15.8C176.3 16 175.8 17.2 176.6 18L180.8 22.1L179.8 27.9C179.6 28.9 180.7 29.7 181.6 29.2L186.8 26.5L192 29.2C192.9 29.7 194 28.9 193.8 27.9L192.8 22.1L197 18C197.8 17.3 197.3 16 196.3 15.8L190.5 15L188 9.7C187.5 8.7 186.2 8.7 185.7 9.7ZM217.8 9.7L215.2 15L209.4 15.8C208.4 16 207.9 17.2 208.7 18L212.9 22.1L211.9 27.9C211.7 28.9 212.8 29.7 213.7 29.2L218.9 26.5L224.1 29.2C225 29.7 226.1 28.9 225.9 27.9L224.9 22.1L229.1 18C229.9 17.3 229.4 16 228.4 15.8L222.6 15L220 9.7C219.6 8.7 218.3 8.7 217.8 9.7ZM249.3 9.7L246.7 15L240.9 15.8C239.9 16 239.4 17.2 240.2 18L244.4 22.1L243.4 27.9C243.2 28.9 244.3 29.7 245.2 29.2L250.4 26.5L255.6 29.2C256.5 29.7 257.6 28.9 257.4 27.9L256.4 22.1L260.6 18C261.4 17.3 260.9 16 259.9 15.8L254.1 15L251.5 9.7C251.1 8.7 249.7 8.7 249.3 9.7ZM281.4 9.7L278.8 15L273 15.8C272 16 271.5 17.2 272.3 18L276.5 22.1L275.5 27.9C275.3 28.9 276.4 29.7 277.3 29.2L282.5 26.5L287.7 29.2C288.6 29.7 289.7 28.9 289.5 27.9L288.5 22.1L292.7 18C293.5 17.3 293 16 292 15.8L286.2 15L283.6 9.7C283.2 8.7 281.9 8.7 281.4 9.7ZM312.8 9.7L310.2 15L304.4 15.8C303.4 16 302.9 17.2 303.7 18L307.9 22.1L306.9 27.9C306.7 28.9 307.8 29.7 308.7 29.2L313.9 26.5L319.1 29.2C320 29.7 321.1 28.9 320.9 27.9L319.9 22.1L324.1 18C324.9 17.3 324.4 16 323.4 15.8L317.6 15L315 9.7C314.6 8.7 313.3 8.7 312.8 9.7Z" fill="white"/>
</svg>
