<svg width="182" height="37" viewBox="0 0 182 37" fill="none" xmlns="http://www.w3.org/2000/svg">
<g clip-path="url(#clip0_134_51)">
<path d="M15.9996 15.2V18.7H24.2996C23.9996 20.7 23.3996 22.1 22.3996 23.1C21.1996 24.3 19.2996 25.7 15.9996 25.7C10.8996 25.7 6.79961 21.6 6.79961 16.4C6.79961 11.2 10.7996 7.10001 15.9996 7.10001C18.7996 7.10001 20.7996 8.20001 22.2996 9.60001L24.7996 7.10001C22.6996 5.10001 19.8996 3.60001 16.0996 3.60001C9.09961 3.60001 3.09961 9.30001 3.09961 16.4C3.09961 23.5 8.99961 29.1 15.9996 29.1C19.7996 29.1 22.6996 27.9 24.8996 25.5C27.1996 23.2 27.8996 19.9 27.8996 17.3C27.8996 16.5 27.7996 15.7 27.6996 15.1H15.9996V15.2ZM38.3996 12.3C33.7996 12.3 30.0996 15.8 30.0996 20.5C30.0996 25.2 33.7996 28.7 38.3996 28.7C42.9996 28.7 46.6996 25.2 46.6996 20.5C46.6996 15.8 42.9996 12.3 38.3996 12.3ZM38.3996 25.6C35.8996 25.6 33.6996 23.5 33.6996 20.6C33.6996 17.6 35.8996 15.6 38.3996 15.6C40.8996 15.6 43.0996 17.6 43.0996 20.6C43.0996 23.5 40.8996 25.6 38.3996 25.6ZM78.9996 14.2C78.0996 13.2 76.4996 12.4 74.5996 12.4C70.4996 12.4 66.8996 16 66.8996 20.6C66.8996 25.2 70.4996 28.8 74.5996 28.8C76.5996 28.8 78.0996 27.9 78.8996 26.9H78.9996V28C78.9996 31.2 77.2996 32.8 74.5996 32.8C72.3996 32.8 70.9996 31.2 70.3996 29.9L67.1996 31.2C68.0996 33.4 70.4996 36.1 74.4996 36.1C78.6996 36.1 82.2996 33.6 82.2996 27.5V12.8H78.9996V14.2ZM74.7996 25.6C72.2996 25.6 70.3996 23.5 70.3996 20.6C70.3996 17.7 72.2996 15.6 74.7996 15.6C77.2996 15.6 79.1996 17.7 79.1996 20.6C79.1996 23.5 77.2996 25.6 74.7996 25.6ZM56.8996 12.3C52.2996 12.3 48.5996 15.8 48.5996 20.5C48.5996 25.2 52.2996 28.7 56.8996 28.7C61.4996 28.7 65.1996 25.2 65.1996 20.5C65.0996 15.8 61.3996 12.3 56.8996 12.3ZM56.8996 25.6C54.3996 25.6 52.1996 23.5 52.1996 20.6C52.1996 17.6 54.3996 15.6 56.8996 15.6C59.3996 15.6 61.5996 17.6 61.5996 20.6C61.4996 23.5 59.3996 25.6 56.8996 25.6ZM85.1996 3.90001H88.7996V28.8H85.1996V3.90001ZM99.7996 25.6C97.9996 25.6 96.5996 24.8 95.7996 23.1L106.8 18.5L106.4 17.6C105.7 15.8 103.6 12.3 99.2996 12.3C95.0996 12.3 91.4996 15.6 91.4996 20.5C91.4996 25.1 94.9996 28.7 99.6996 28.7C103.5 28.7 105.7 26.4 106.6 25.1L103.8 23.2C102.9 24.7 101.7 25.6 99.7996 25.6ZM99.5996 15.4C101.1 15.4 102.3 16.2 102.7 17.2L95.1996 20.3C95.1996 16.9 97.6996 15.4 99.5996 15.4Z" fill="white"/>
<path d="M165.5 33.7H131.4C124.2 33.7 118.4 27.9 118.4 20.7V17C118.4 9.8 124.2 4 131.4 4H165.5C172.7 4 178.5 9.8 178.5 17V20.7C178.5 27.9 172.7 33.7 165.5 33.7Z" fill="white"/>
<path d="M162.1 12.7L160.4 16.1L156.7 16.6C156 16.7 155.8 17.5 156.2 18L158.9 20.6L158.3 24.3C158.2 25 158.9 25.5 159.5 25.2L162.8 23.4L166.1 25.2C166.7 25.5 167.4 25 167.3 24.3L166.7 20.6L169.4 18C169.9 17.5 169.6 16.7 168.9 16.6L165.2 16.1L163.5 12.7C163.3 12.1 162.4 12.1 162.1 12.7Z" fill="#1668E1"/>
<path d="M136.5 21.2V22.8H135V25H133V22.8H128.1V21.3L133.3 13.8H134.9V21.2H136.5ZM130 21.2H133V16.9L130 21.2ZM138.8 22.7H141V24.9H138.8V22.7ZM151.2 20.2C151.6 20.7 151.8 21.3 151.8 21.9C151.8 22.5 151.6 23.1 151.3 23.6C150.9 24.1 150.5 24.4 149.8 24.7C149.2 25 148.4 25.1 147.6 25.1C146.8 25.1 146 25 145.4 24.7C144.8 24.4 144.3 24.1 143.9 23.6C143.5 23.1 143.4 22.6 143.4 21.9C143.4 21.2 143.6 20.6 144 20.2C144.4 19.7 145 19.4 145.7 19.2C145.1 19 144.6 18.7 144.2 18.2C143.8 17.7 143.7 17.2 143.7 16.6C143.7 16 143.9 15.5 144.2 15C144.5 14.5 145 14.2 145.6 13.9C146.2 13.7 146.9 13.5 147.6 13.5C148.4 13.5 149 13.6 149.6 13.9C150.2 14.1 150.7 14.5 151 15C151.3 15.5 151.5 16 151.5 16.6C151.5 17.2 151.3 17.7 151 18.2C150.6 18.7 150.1 19 149.5 19.2C150.2 19.4 150.8 19.7 151.2 20.2ZM149.3 23C149.7 22.7 149.9 22.3 149.9 21.7C149.9 21.2 149.7 20.8 149.3 20.5C148.9 20.2 148.3 20 147.6 19.9C146.9 20 146.4 20.2 145.9 20.5C145.5 20.8 145.3 21.2 145.3 21.7C145.3 22.2 145.5 22.7 145.9 23C146.3 23.3 146.9 23.4 147.6 23.4C148.3 23.5 148.9 23.3 149.3 23ZM146.1 15.6C145.7 15.9 145.6 16.3 145.6 16.8C145.6 17.3 145.8 17.7 146.1 18C146.5 18.3 146.9 18.5 147.6 18.6C148.2 18.5 148.7 18.3 149.1 18C149.5 17.7 149.6 17.3 149.6 16.8C149.6 16.3 149.4 15.9 149.1 15.6C148.7 15.3 148.3 15.2 147.6 15.2C147 15.2 146.5 15.3 146.1 15.6Z" fill="#1667E0" stroke="#1668E1" stroke-width="0.5" stroke-miterlimit="10"/>
</g>
<defs>
<clipPath id="clip0_134_51">
<rect width="181.5" height="36.2" fill="white"/>
</clipPath>
</defs>
</svg>
