<svg width="297" height="40" viewBox="0 0 297 40" fill="none" xmlns="http://www.w3.org/2000/svg">
<path d="M229.136 0.493827L211.358 39.5062H223.21L234.074 11.8519L245.432 39.5062H256.79L239.506 0.493827H229.136Z" fill="#FFFFFF"/>
<path d="M195.062 0.493827H160.494V9.38272H172.346V39.5062H183.21V9.38272H195.062V0.493827Z" fill="#FFFFFF"/>
<path d="M34.5679 0.987654H0V9.87654H11.8519V40H22.716V9.87654H34.5679V0.987654Z" fill="#FFFFFF"/>
<path d="M38.5185 9.87654V0.987654H56.2963C75.5556 0.987654 79.0123 21.2346 64.6914 27.1605L73.5802 40H62.2222L55.3086 29.6296H48.8889V40H38.5185V21.2346H56.2963C63.7037 21.2346 65.679 10.3704 56.2963 9.87654H38.5185Z" fill="#FFFFFF"/>
<path d="M94.321 0.987654L76.5432 40H88.3951L99.2593 12.3457L110.617 40H121.975L104.691 0.987654H94.321Z" fill="#FFFFFF"/>
<path d="M158.025 7.40741L151.605 13.8272C151.605 13.8272 146.667 8.88889 141.728 8.88889C136.79 8.88889 130.37 12.3457 130.37 20.2469C130.37 28.1481 135.802 31.6049 141.728 31.6049C147.654 31.6049 151.605 26.6667 151.605 26.6667L158.025 33.5802C153.58 38.5185 149.136 40 141.728 40C134.321 40 120.494 36.0494 120.494 20.2469C120.494 4.44444 135.309 0 141.728 0C148.148 0 155.062 3.45679 158.025 7.40741Z" fill="#FFFFFF"/>
<path d="M209.383 0.987654H198.519V40H209.383V0.987654Z" fill="#FFFFFF"/>
<path d="M259.259 39.5062V14.8148L269.63 27.6543V39.5062H259.259Z" fill="#FFFFFF"/>
<path d="M259.259 0.493827V5.4321L287.407 39.5062H296.296V35.0617L268.148 0.493827H259.259Z" fill="#FFFFFF"/>
<path d="M296.296 24.6914L285.432 11.8519V0.493827H296.296V24.6914Z" fill="#FFFFFF"/>
</svg>
