<svg width="164" height="164" viewBox="0 0 164 164" fill="none" xmlns="http://www.w3.org/2000/svg">
<circle cx="82.1923" cy="82.2422" r="73.788" transform="rotate(9.77282 82.1923 82.2422)" fill="#2C2C34"/>
<path d="M72.9792 145.798L73.6481 137.078L75.2406 137.2L78.6135 142.98L78.6773 142.985L79.0983 137.496L80.9421 137.638L80.2732 146.359L78.6551 146.234L75.3117 140.461L75.235 140.455L74.8144 145.939L72.9792 145.798Z" fill="white"/>
<path d="M69.5333 142.443L69.4302 142.884C69.3375 143.281 69.1724 143.612 68.9347 143.878C68.6965 144.147 68.4045 144.333 68.0587 144.436C67.7102 144.538 67.3294 144.541 66.9164 144.445C66.2844 144.297 65.8315 143.989 65.5578 143.521C65.2813 143.053 65.2125 142.522 65.3512 141.929L65.4542 141.488C65.5462 141.094 65.7097 140.764 65.9445 140.497C66.1787 140.234 66.4673 140.05 66.8103 139.946C67.1526 139.845 67.5331 139.843 67.9517 139.941C68.5865 140.09 69.0441 140.396 69.3247 140.859C69.6018 141.325 69.6713 141.853 69.5333 142.443ZM68.4032 142.644L68.5062 142.203C68.5859 141.862 68.5661 141.559 68.4468 141.294C68.3267 141.032 68.0963 140.861 67.7553 140.781C67.4199 140.703 67.1445 140.755 66.9291 140.939C66.7102 141.124 66.561 141.388 66.4813 141.729L66.3782 142.169C66.3004 142.502 66.3178 142.803 66.4303 143.072C66.5428 143.341 66.771 143.516 67.1147 143.596C67.4473 143.674 67.7265 143.618 67.9522 143.428C68.1751 143.238 68.3254 142.976 68.4032 142.644Z" fill="white"/>
<path d="M47.3859 136.242L51.8523 128.722L53.4414 129.668L49.8713 135.678L49.9153 135.704L52.2777 135.649L51.4403 137.059L48.8796 137.131L47.3859 136.242Z" fill="white"/>
<path d="M40.8112 119.309L42.8729 121.624L36.3461 127.446L34.2674 125.112C33.6823 124.455 33.3094 123.772 33.1485 123.065C32.9856 122.36 33.0337 121.663 33.2931 120.973C33.5505 120.282 34.0181 119.634 34.6959 119.03C35.3758 118.423 36.0746 118.031 36.7923 117.852C37.5082 117.671 38.2097 117.704 38.897 117.949C39.5824 118.192 40.2205 118.645 40.8112 119.309ZM40.4609 121.298L39.68 120.421C39.3165 120.013 38.9385 119.734 38.546 119.584C38.1495 119.434 37.7358 119.425 37.3049 119.558C36.87 119.69 36.4092 119.973 35.9227 120.407C35.4404 120.838 35.1097 121.26 34.9306 121.676C34.7496 122.089 34.7109 122.499 34.8145 122.907C34.918 123.314 35.1515 123.722 35.515 124.13L36.2988 125.011L40.4609 121.298Z" fill="white"/>
<path d="M29.4222 111.092C30.2225 110.574 31.0016 110.284 31.7595 110.224C32.5158 110.161 33.2106 110.294 33.844 110.623C34.4735 110.951 34.9978 111.439 35.4169 112.087C35.8391 112.74 36.0699 113.422 36.1092 114.132C36.1486 114.843 35.985 115.531 35.6184 116.196C35.2519 116.861 34.6696 117.452 33.8717 117.969C33.0713 118.488 32.293 118.779 31.5367 118.842C30.7804 118.904 30.0875 118.772 29.4581 118.443C28.8262 118.117 28.2992 117.627 27.877 116.975C27.4579 116.327 27.2286 115.648 27.1893 114.937C27.146 114.225 27.3076 113.537 27.6742 112.872C28.0392 112.204 28.6219 111.611 29.4222 111.092ZM30.4406 112.666C29.9222 113.002 29.5353 113.364 29.2798 113.75C29.0228 114.133 28.8928 114.525 28.8898 114.924C28.8868 115.323 29.0067 115.71 29.2495 116.085C29.4923 116.46 29.7962 116.728 30.1611 116.889C30.526 117.049 30.9367 117.091 31.3932 117.016C31.8481 116.938 32.3348 116.731 32.8532 116.395C33.3717 116.059 33.7594 115.7 34.0164 115.316C34.2718 114.93 34.401 114.537 34.4041 114.138C34.4071 113.739 34.2872 113.352 34.0444 112.977C33.8016 112.602 33.4977 112.334 33.1328 112.173C32.7679 112.013 32.358 111.972 31.903 112.049C31.4465 112.125 30.959 112.33 30.4406 112.666Z" fill="white"/>
<path d="M21.2048 103.548L20.601 101.349L25.6292 97.4682L25.6021 97.3694L19.2985 96.6052L18.6948 94.406L27.1277 92.0865L27.6026 93.8161L22.1138 95.3259L22.133 95.3959L28.1799 96.0801L28.5032 97.2579L23.6342 100.945L23.6535 101.015L29.1629 99.4992L29.6378 101.229L21.2048 103.548Z" fill="white"/>
<path d="M27.0512 90.7949L18.3629 91.7989L17.6876 85.9443L19.2021 85.7693L19.6655 89.7869L21.7358 89.5477L21.3071 85.8313L22.8217 85.6563L23.2503 89.3727L25.3248 89.133L24.8595 85.0984L26.374 84.9234L27.0512 90.7949Z" fill="white"/>
<path d="M26.3164 82.9745L17.5767 82.6391L17.7087 79.191C17.734 78.531 17.8736 77.9722 18.1276 77.5147C18.3789 77.0543 18.724 76.7099 19.1629 76.4817C19.5992 76.2506 20.106 76.1461 20.6836 76.1683C21.2639 76.1905 21.7584 76.3349 22.1671 76.6013C22.5728 76.8676 22.8776 77.2425 23.0813 77.7261C23.2851 78.2069 23.3742 78.783 23.3485 79.4544L23.26 81.7631L21.775 81.7061L21.8519 79.6962C21.8655 79.3434 21.8283 79.0485 21.7405 78.8115C21.6527 78.5745 21.5143 78.3954 21.3252 78.2742C21.1362 78.1501 20.898 78.0826 20.6107 78.0716C20.3205 78.0604 20.0736 78.1094 19.87 78.2184C19.6665 78.3245 19.509 78.4937 19.3975 78.7259C19.2833 78.9551 19.2194 79.2476 19.2058 79.6032L19.1581 80.8493L26.3871 81.1267L26.3164 82.9745ZM22.5199 78.1021L26.5803 76.0825L26.5022 78.1224L22.4435 80.095L22.5199 78.1021Z" fill="white"/>
<path d="M22.6633 65.9661L22.3075 67.8024C22.0635 67.7899 21.8392 67.8174 21.6347 67.885C21.4274 67.9521 21.2423 68.0539 21.0796 68.1905C20.9168 68.3271 20.7799 68.4949 20.6689 68.6937C20.5584 68.8898 20.4793 69.1108 20.4316 69.3568C20.3455 69.8012 20.3809 70.2097 20.5378 70.5824C20.6919 70.9546 20.961 71.2722 21.345 71.5352C21.7262 71.7977 22.2145 71.9868 22.8098 72.1023C23.4219 72.2212 23.9538 72.2301 24.4054 72.1293C24.8576 72.0257 25.2218 71.8296 25.4981 71.541C25.7745 71.2524 25.9546 70.8915 26.0385 70.4582C26.0857 70.2151 26.0971 69.9838 26.0729 69.7645C26.0492 69.5424 25.9916 69.3384 25.9001 69.1524C25.8057 68.9658 25.6794 68.8021 25.5211 68.6612C25.3633 68.5174 25.1739 68.4024 24.9529 68.316L25.3171 66.4812C25.7019 66.6052 26.059 66.7978 26.3883 67.0589C26.7154 67.3167 26.992 67.6329 27.2181 68.0074C27.442 68.3786 27.5953 68.7999 27.6779 69.2713C27.7583 69.7393 27.7452 70.2486 27.6385 70.7993C27.4901 71.5651 27.1842 72.2163 26.7206 72.7527C26.2576 73.2864 25.6639 73.6642 24.9394 73.8861C24.2154 74.1052 23.3867 74.1241 22.4532 73.9429C21.5169 73.7611 20.7545 73.4304 20.1659 72.9508C19.5774 72.4711 19.1697 71.896 18.9429 71.2255C18.7133 70.5545 18.6716 69.8417 18.8179 69.087C18.9143 68.5895 19.0735 68.1419 19.2956 67.7442C19.5182 67.3436 19.7956 67.0045 20.1278 66.7268C20.4572 66.4485 20.8348 66.2434 21.2606 66.1114C21.6869 65.9767 22.1545 65.9282 22.6633 65.9661Z" fill="white"/>
<path d="M29.0496 64.8388L28.3803 66.7039L21.1696 60.9032L21.9744 58.6603L31.2232 58.7812L30.5539 60.6463L23.4643 60.4257L23.4412 60.49L29.0496 64.8388ZM25.7726 63.7923L27.3534 59.3868L28.7118 59.8751L27.131 64.2807L25.7726 63.7923Z" fill="white"/>
<path d="M32.8958 55.8052L31.4157 58.5296L23.7338 54.3484L25.2261 51.6015C25.6461 50.8285 26.1614 50.2468 26.772 49.8563C27.3802 49.4645 28.0521 49.2743 28.7879 49.2858C29.525 49.2947 30.2924 49.5163 31.0901 49.9505C31.8903 50.386 32.4958 50.9117 32.9065 51.5274C33.3185 52.1407 33.5254 52.8125 33.5272 53.5428C33.5303 54.2705 33.3199 55.0247 32.8958 55.8052ZM30.9069 56.1473L31.4675 55.1153C31.7285 54.635 31.863 54.1847 31.871 53.7644C31.8778 53.3403 31.7461 52.9477 31.4757 52.5866C31.2041 52.2216 30.782 51.8833 30.2094 51.5716C29.6417 51.2626 29.1323 51.094 28.6812 51.0656C28.2314 51.0347 27.8325 51.1369 27.4844 51.372C27.1363 51.6072 26.8318 51.9649 26.5708 52.4453L26.0081 53.481L30.9069 56.1473Z" fill="white"/>
<path d="M36.7664 42.2953C37.5247 42.8738 38.0602 43.5099 38.3731 44.2034C38.6876 44.8946 38.7972 45.5942 38.7019 46.3021C38.606 47.006 38.3243 47.6649 37.8568 48.2787C37.3859 48.897 36.823 49.3449 36.168 49.6223C35.513 49.8996 34.8109 49.9781 34.0616 49.8576C33.3123 49.7372 32.5597 49.3886 31.8037 48.8118C31.0455 48.2332 30.509 47.5983 30.1945 46.9071C29.8799 46.2159 29.7706 45.5183 29.8665 44.8144C29.9601 44.1087 30.2424 43.4467 30.7133 42.8284C31.1808 42.2146 31.742 41.769 32.397 41.4916C33.0514 41.2103 33.7533 41.1298 34.5025 41.2502C35.2535 41.3684 36.0081 41.7168 36.7664 42.2953ZM35.6305 43.7868C35.1393 43.4121 34.6691 43.1697 34.2197 43.0596C33.772 42.9472 33.3602 42.957 32.984 43.0891C32.6079 43.2211 32.2845 43.4649 32.0137 43.8205C31.7428 44.1761 31.5937 44.5529 31.5661 44.9509C31.5386 45.3489 31.6374 45.7502 31.8625 46.1547C32.0894 46.557 32.4484 46.9455 32.9396 47.3202C33.4308 47.695 33.9002 47.9385 34.3478 48.0509C34.7972 48.161 35.21 48.15 35.5861 48.018C35.9622 47.886 36.2856 47.6422 36.5565 47.2865C36.8273 46.9309 36.9764 46.5541 37.004 46.1562C37.0315 45.7582 36.9318 45.358 36.705 44.9558C36.4798 44.5512 36.1217 44.1616 35.6305 43.7868Z" fill="white"/>
<path d="M47.9261 37.8718L42.8974 30.7158L47.7163 27.3232L48.5929 28.5706L45.286 30.8987L46.4842 32.6038L49.5432 30.4502L50.4198 31.6976L47.3608 33.8512L48.5615 35.5599L51.8824 33.2219L52.7589 34.4693L47.9261 37.8718Z" fill="white"/>
<path d="M49.1669 26.3364L51.2102 25.3237L55.9738 29.5213L56.0656 29.4758L55.6183 23.1391L57.6616 22.1265L61.5395 29.9659L59.9324 30.7624L57.4084 25.6599L57.3433 25.6921L57.8204 31.7614L56.7261 32.3038L52.1834 28.2254L52.1184 28.2577L54.6519 33.3793L53.0448 34.1758L49.1669 26.3364Z" fill="white"/>
<path d="M74.0661 20.545C73.9798 20.2097 73.7941 19.9677 73.509 19.8187C73.2239 19.6698 72.8618 19.6292 72.4229 19.6971C72.1247 19.7432 71.8793 19.8244 71.687 19.9405C71.4942 20.0539 71.3542 20.1922 71.267 20.3555C71.1827 20.5183 71.1549 20.6926 71.1835 20.8783C71.2018 21.0339 71.255 21.164 71.3431 21.2685C71.4341 21.3725 71.5494 21.457 71.689 21.5218C71.8282 21.5838 71.9856 21.633 72.1612 21.6692C72.3363 21.7026 72.5214 21.7259 72.7164 21.7389L73.5216 21.8046C73.9116 21.8307 74.2751 21.8897 74.6119 21.9817C74.9488 22.0737 75.2484 22.2045 75.5108 22.3743C75.7732 22.544 75.9892 22.7584 76.1588 23.0173C76.3312 23.2759 76.4466 23.585 76.505 23.9448C76.5839 24.4742 76.5196 24.9537 76.3122 25.3833C76.1072 25.8097 75.7708 26.1685 75.303 26.4598C74.8375 26.7478 74.2531 26.9462 73.5497 27.055C72.8519 27.1628 72.2277 27.1499 71.677 27.0161C71.1291 26.8818 70.6779 26.6275 70.3234 26.253C69.9713 25.8753 69.7402 25.3767 69.6301 24.757L71.3985 24.4836C71.4629 24.7704 71.5833 24.9995 71.7595 25.1711C71.9382 25.3393 72.1589 25.4536 72.4217 25.5138C72.6869 25.5707 72.977 25.5749 73.2922 25.5261C73.6017 25.4783 73.8634 25.3917 74.0774 25.2664C74.2943 25.1407 74.4536 24.9879 74.5555 24.8079C74.6573 24.628 74.6922 24.4339 74.6601 24.2257C74.6301 24.0315 74.5472 23.8773 74.4115 23.7628C74.2785 23.648 74.0951 23.5611 73.8613 23.5022C73.6304 23.4428 73.3515 23.3995 73.0246 23.3723L72.047 23.2814C71.2909 23.2168 70.6727 23.0286 70.1925 22.7168C69.7123 22.405 69.4243 21.9296 69.3285 21.2904C69.245 20.7675 69.3137 20.2887 69.5347 19.8541C69.7585 19.4191 70.1011 19.0535 70.5624 18.7575C71.0237 18.4615 71.5695 18.2647 72.1998 18.1673C72.8413 18.0681 73.4181 18.0913 73.9303 18.2368C74.4453 18.3819 74.8666 18.6293 75.1943 18.9791C75.5219 19.3289 75.7297 19.7606 75.8176 20.2742L74.0661 20.545Z" fill="white"/>
<path d="M83.1471 17.5885V26.3347H81.2979V17.5885H83.1471Z" fill="white"/>
<path d="M92.931 21.0213C92.9498 20.6757 92.8458 20.3888 92.6189 20.1607C92.3919 19.9327 92.059 19.7847 91.6201 19.7169C91.3218 19.6709 91.0635 19.6742 90.845 19.7269C90.627 19.7767 90.4519 19.8664 90.3195 19.9957C90.19 20.1255 90.1109 20.2833 90.0822 20.469C90.0527 20.6229 90.0642 20.7629 90.1167 20.8891C90.172 21.0158 90.2565 21.1311 90.3701 21.2351C90.4841 21.3362 90.6193 21.4306 90.7758 21.5181C90.9327 21.6029 91.1021 21.6809 91.2841 21.7522L92.032 22.0579C92.396 22.2005 92.7247 22.3665 93.0181 22.5559C93.3115 22.7452 93.5577 22.9604 93.7567 23.2015C93.9557 23.4425 94.097 23.7121 94.1806 24.0102C94.267 24.3087 94.2838 24.6383 94.2309 24.9989C94.1464 25.5274 93.9405 25.9652 93.6133 26.3122C93.2892 26.6568 92.8603 26.8974 92.3264 27.0339C91.7958 27.168 91.1788 27.1807 90.4754 27.072C89.7776 26.9643 89.1863 26.7635 88.7016 26.4696C88.2198 26.1763 87.8663 25.7976 87.6412 25.3336C87.4194 24.8672 87.3495 24.322 87.4315 23.698L89.1999 23.9712C89.1748 24.264 89.2205 24.5188 89.3368 24.7356C89.4564 24.9499 89.6323 25.1255 89.8647 25.2622C90.1004 25.3965 90.3758 25.488 90.6909 25.5367C91.0004 25.5845 91.2761 25.581 91.5179 25.5262C91.7625 25.4718 91.9605 25.3742 92.1119 25.2333C92.2633 25.0925 92.3551 24.918 92.3872 24.7098C92.4172 24.5156 92.3847 24.3435 92.2898 24.1935C92.1977 24.0438 92.0491 23.9057 91.8439 23.7789C91.6416 23.6526 91.3888 23.5271 91.0854 23.4025L90.1807 23.0207C89.4793 22.7309 88.9467 22.3649 88.5829 21.9227C88.2191 21.4804 88.0879 20.9402 88.1894 20.3019C88.2674 19.7781 88.4773 19.3424 88.8191 18.9948C89.1637 18.6476 89.6005 18.4025 90.1296 18.2595C90.6588 18.1165 91.2384 18.0937 91.8687 18.1911C92.5102 18.2902 93.0532 18.4864 93.4976 18.7797C93.9449 19.0735 94.2719 19.4366 94.4788 19.869C94.6857 20.3014 94.7536 20.7757 94.6825 21.2919L92.931 21.0213Z" fill="white"/>
<path d="M97.867 21.0378L98.3266 19.5841L105.174 21.7532L104.715 23.2069L102.162 22.3983L99.9851 29.2839L98.2426 28.7319L100.42 21.8464L97.867 21.0378Z" fill="white"/>
<path d="M104.361 30.9539L108.239 23.1144L113.52 25.7314L112.844 27.0979L109.22 25.3021L108.296 27.1701L111.648 28.8313L110.972 30.1978L107.62 28.5366L106.694 30.4084L110.333 32.2119L109.657 33.5784L104.361 30.9539Z" fill="white"/>
<path d="M115.074 26.539L116.939 27.8519L115.53 34.0463L115.614 34.1053L120.962 30.684L122.827 31.9968L117.798 39.1528L116.331 38.1202L119.604 33.4626L119.545 33.4208L114.446 36.7405L113.447 36.0374L114.857 30.0942L114.798 30.0524L111.512 34.7275L110.046 33.695L115.074 26.539Z" fill="white"/>
<path d="M119.174 40.5813L117.747 39.2066L125.983 34.9967L127.699 36.6499L123.809 45.0462L122.382 43.6715L125.481 37.2877L125.431 37.2403L119.174 40.5813ZM121.467 38.0173L124.838 41.2645L123.838 42.305L120.467 39.0578L121.467 38.0173Z" fill="white"/>
<path d="M132.046 45.6702C132.299 45.4341 132.423 45.1551 132.418 44.8333C132.412 44.5115 132.275 44.1739 132.006 43.8205C131.823 43.5804 131.635 43.4036 131.441 43.2901C131.249 43.1748 131.061 43.1179 130.876 43.1194C130.693 43.1231 130.527 43.182 130.377 43.296C130.249 43.3864 130.16 43.4954 130.111 43.6228C130.063 43.7525 130.044 43.8942 130.053 44.0479C130.065 44.1999 130.097 44.3618 130.149 44.5334C130.204 44.7033 130.271 44.8771 130.353 45.0547L130.68 45.7939C130.843 46.1492 130.965 46.4969 131.045 46.8369C131.125 47.1769 131.153 47.5028 131.129 47.8146C131.105 48.1264 131.02 48.4188 130.874 48.6917C130.729 48.9668 130.513 49.2161 130.225 49.4394C129.797 49.7618 129.346 49.9346 128.869 49.9577C128.397 49.9814 127.921 49.8573 127.442 49.5853C126.967 49.314 126.514 48.8951 126.083 48.3289C125.655 47.7672 125.369 47.2123 125.223 46.6643C125.08 46.1185 125.087 45.6004 125.247 45.1098C125.411 44.6197 125.738 44.1781 126.23 43.7852L127.314 45.2087C127.093 45.4025 126.949 45.6178 126.883 45.8547C126.82 46.0922 126.825 46.3408 126.898 46.6006C126.974 46.8609 127.109 47.1179 127.302 47.3716C127.492 47.6207 127.693 47.8094 127.905 47.9376C128.119 48.0681 128.329 48.1351 128.536 48.1385C128.743 48.142 128.93 48.0799 129.097 47.9521C129.253 47.8329 129.349 47.6863 129.385 47.5123C129.422 47.3405 129.411 47.1378 129.351 46.9041C129.293 46.6727 129.198 46.4069 129.066 46.1066L128.679 45.2039C128.375 44.5084 128.245 43.8751 128.29 43.304C128.334 42.7328 128.614 42.2523 129.13 41.8626C129.549 41.5391 130.002 41.3706 130.489 41.3571C130.978 41.3458 131.463 41.4721 131.943 41.736C132.423 42 132.856 42.3856 133.243 42.893C133.636 43.4094 133.891 43.9275 134.008 44.4473C134.126 44.9693 134.11 45.4579 133.959 45.9131C133.808 46.3683 133.529 46.7574 133.12 47.0802L132.046 45.6702Z" fill="white"/>
<path d="M133.184 60.1748L141.415 57.216L142.58 60.4639C142.804 61.0883 142.876 61.663 142.795 62.1882C142.717 62.7125 142.509 63.1654 142.171 63.5471C141.837 63.9305 141.396 64.2204 140.85 64.4169C140.303 64.6134 139.779 64.6689 139.276 64.5833C138.773 64.4977 138.325 64.2731 137.932 63.9093C137.539 63.5483 137.229 63.0516 137.002 62.4191L136.259 60.349L137.654 59.8477L138.296 61.6364C138.416 61.9714 138.573 62.2267 138.766 62.4024C138.962 62.5797 139.183 62.6849 139.428 62.718C139.676 62.7527 139.936 62.7214 140.206 62.6242C140.48 62.5259 140.698 62.3853 140.863 62.2022C141.03 62.0208 141.131 61.8001 141.165 61.5399C141.201 61.2787 141.159 60.9793 141.038 60.6417L140.617 59.4679L133.809 61.9153L133.184 60.1748Z" fill="white"/>
<path d="M135.888 68.2059L144.473 66.5392L145.13 69.9268C145.255 70.5753 145.247 71.1512 145.104 71.6547C144.964 72.1603 144.706 72.5743 144.331 72.8966C143.958 73.2212 143.489 73.4385 142.921 73.5487C142.351 73.6593 141.837 73.6316 141.378 73.4653C140.923 73.2986 140.541 73.003 140.232 72.5785C139.924 72.1569 139.706 71.6162 139.579 70.9566L139.139 68.6884L140.598 68.4052L140.981 70.3799C141.048 70.7265 141.151 71.0051 141.291 71.2159C141.43 71.4266 141.606 71.5695 141.817 71.6444C142.03 71.7221 142.277 71.7335 142.559 71.6787C142.844 71.6234 143.073 71.5195 143.247 71.3669C143.421 71.2171 143.536 71.0164 143.591 70.7649C143.65 70.5157 143.646 70.2163 143.578 69.8669L143.341 68.6427L136.239 70.0213L135.888 68.2059ZM140.693 72.0844L137.199 74.9769L136.811 72.9729L140.314 70.1265L140.693 72.0844Z" fill="white"/>
<path d="M137.373 77.2793L146.113 76.944L146.338 82.8331L144.815 82.8915L144.66 78.8503L142.578 78.9302L142.721 82.6684L141.197 82.7269L141.054 78.9886L138.967 79.0687L139.123 83.127L137.599 83.1855L137.373 77.2793Z" fill="white"/>
<path d="M137.202 87.7874L137.557 84.7074L146.246 85.7113L145.887 88.8168C145.787 89.6907 145.526 90.423 145.105 91.0135C144.687 91.6043 144.135 92.032 143.448 92.2966C142.761 92.564 141.966 92.6455 141.064 92.5413C140.159 92.4367 139.401 92.1757 138.79 91.7583C138.179 91.3438 137.736 90.7982 137.461 90.1216C137.187 89.4479 137.1 88.6698 137.202 87.7874ZM138.919 86.7262L138.785 87.8929C138.722 88.4359 138.765 88.9038 138.915 89.2965C139.067 89.6924 139.336 90.0072 139.722 90.241C140.11 90.4779 140.628 90.6337 141.276 90.7086C141.918 90.7827 142.453 90.7486 142.882 90.6062C143.311 90.4666 143.643 90.2226 143.878 89.8743C144.113 89.5261 144.262 89.0804 144.325 88.5374L144.46 87.3664L138.919 86.7262Z" fill="white"/>
<path d="M143.605 100.26L135.172 97.9408L135.661 96.1576L144.094 98.4772L143.605 100.26Z" fill="white"/>
<path d="M140.541 104.723L141.932 105.347L138.996 111.902L137.605 111.278L138.699 108.834L132.111 105.878L132.858 104.21L139.446 107.166L140.541 104.723Z" fill="white"/>
<path d="M135.206 118.027L127.867 113.269L128.871 111.717L136.21 116.474L135.206 118.027Z" fill="white"/>
<path d="M131.127 123.44L124.763 120.596L124.709 120.656L128.259 126.662L126.896 128.193L122.374 120.119L123.959 118.339L132.493 121.906L131.127 123.44Z" fill="white"/>
<path d="M116.933 130.813C116.326 130.077 115.95 129.336 115.803 128.59C115.654 127.845 115.707 127.139 115.961 126.471C116.215 125.807 116.639 125.23 117.234 124.739C117.834 124.244 118.484 123.936 119.185 123.816C119.886 123.695 120.587 123.778 121.289 124.066C121.991 124.354 122.645 124.865 123.25 125.599C123.856 126.335 124.234 127.076 124.382 127.82C124.531 128.565 124.479 129.269 124.225 129.933C123.973 130.599 123.547 131.179 122.948 131.674C122.353 132.165 121.705 132.471 121.004 132.592C120.303 132.716 119.601 132.635 118.899 132.347C118.195 132.061 117.539 131.55 116.933 130.813ZM118.378 129.62C118.771 130.097 119.174 130.44 119.586 130.65C119.997 130.861 120.4 130.945 120.796 130.902C121.193 130.86 121.563 130.696 121.908 130.411C122.253 130.127 122.484 129.794 122.601 129.413C122.719 129.031 122.714 128.618 122.587 128.173C122.458 127.73 122.197 127.269 121.804 126.793C121.411 126.316 121.009 125.972 120.599 125.76C120.187 125.551 119.782 125.467 119.386 125.51C118.99 125.553 118.619 125.717 118.274 126.001C117.93 126.286 117.698 126.619 117.581 127C117.464 127.381 117.469 127.794 117.599 128.237C117.726 128.682 117.986 129.143 118.378 129.62Z" fill="white"/>
<path d="M112.189 135.892C112.394 136.17 112.657 136.325 112.977 136.357C113.297 136.388 113.648 136.291 114.029 136.064C114.289 135.909 114.486 135.742 114.621 135.563C114.757 135.385 114.835 135.205 114.855 135.021C114.873 134.838 114.833 134.666 114.737 134.504C114.662 134.367 114.564 134.266 114.444 134.202C114.32 134.139 114.182 134.104 114.028 134.096C113.876 134.091 113.712 134.104 113.535 134.136C113.36 134.171 113.18 134.218 112.994 134.279L112.223 134.519C111.852 134.641 111.493 134.722 111.146 134.763C110.799 134.804 110.472 134.794 110.166 134.735C109.859 134.676 109.578 134.558 109.324 134.381C109.068 134.205 108.845 133.962 108.657 133.65C108.386 133.188 108.266 132.719 108.298 132.243C108.329 131.771 108.507 131.312 108.832 130.867C109.156 130.426 109.624 130.023 110.235 129.659C110.842 129.298 111.426 129.077 111.987 128.995C112.545 128.915 113.058 128.982 113.527 129.197C113.995 129.415 114.395 129.791 114.729 130.325L113.191 131.24C113.024 130.998 112.827 130.831 112.599 130.737C112.371 130.648 112.123 130.625 111.857 130.667C111.59 130.714 111.319 130.818 111.045 130.981C110.776 131.141 110.566 131.32 110.414 131.516C110.26 131.714 110.17 131.915 110.142 132.12C110.115 132.325 110.155 132.518 110.263 132.699C110.363 132.868 110.498 132.98 110.666 133.036C110.832 133.092 111.035 133.104 111.274 133.072C111.51 133.04 111.785 132.976 112.098 132.879L113.039 132.598C113.764 132.375 114.408 132.318 114.969 132.428C115.531 132.538 115.976 132.871 116.304 133.428C116.576 133.882 116.692 134.352 116.649 134.838C116.604 135.325 116.423 135.792 116.106 136.239C115.788 136.687 115.356 137.073 114.808 137.399C114.25 137.731 113.706 137.925 113.177 137.982C112.645 138.04 112.162 137.968 111.728 137.766C111.293 137.564 110.939 137.241 110.666 136.798L112.189 135.892Z" fill="white"/>
<path d="M94.9831 137.651C95.3185 137.573 95.6439 137.583 95.9593 137.681C96.2754 137.783 96.549 137.952 96.7802 138.191C97.0085 138.43 97.1619 138.717 97.2404 139.052C97.3194 139.39 97.3093 139.716 97.2099 140.029C97.1084 140.345 96.9382 140.617 96.6992 140.846C96.4609 141.077 96.174 141.232 95.8386 141.31C95.5004 141.39 95.1747 141.378 94.8613 141.276C94.5459 141.178 94.274 141.009 94.0456 140.77C93.8151 140.534 93.6604 140.248 93.5813 139.909C93.5029 139.574 93.5144 139.248 93.6159 138.932C93.7146 138.616 93.8832 138.343 94.1215 138.112C94.3577 137.884 94.6449 137.73 94.9831 137.651Z" fill="white"/>
</svg>
