<svg width="31" height="32" viewBox="0 0 31 32" fill="none" xmlns="http://www.w3.org/2000/svg">
<path fill-rule="evenodd" clip-rule="evenodd" d="M24.1184 28.821C21.7464 30.8753 18.5865 32 15.117 32C7.75316 32 1.78362 27.2 1.78362 18.6667C1.78362 15.802 2.89552 12.7571 4.50395 9.97577L0.655307 6.27805C-0.194304 5.46176 -0.221314 4.11127 0.594979 3.26166C1.41127 2.41205 2.76175 2.38504 3.61137 3.20134L6.93901 6.39849C9.88682 2.65835 13.3414 0 15.117 0C18.5836 0 28.4503 10.4 28.4503 18.6667C28.4503 21.2792 27.8541 23.5721 26.8061 25.4865L29.3788 27.9583C30.2285 28.7746 30.2555 30.1251 29.4392 30.9747C28.6229 31.8243 27.2724 31.8513 26.4228 31.035L24.1184 28.821ZM20.6326 25.472L8.09214 13.4232C7.13044 15.3231 6.58362 17.1514 6.58362 18.6667C6.58362 21.752 7.62826 23.7694 8.97534 25.0349C10.3696 26.3447 12.4677 27.2 15.117 27.2C17.3569 27.2 19.2399 26.5378 20.6326 25.472ZM23.1347 21.9591C23.4612 21.0147 23.6503 19.9214 23.6503 18.6667C23.6503 16.1662 21.997 12.5665 19.3321 9.22767C18.074 7.65149 16.776 6.37176 15.7066 5.53584C15.4776 5.35684 15.2743 5.21012 15.0983 5.09167C14.9228 5.20737 14.7202 5.35064 14.4923 5.52544C13.4294 6.34063 12.1386 7.59246 10.8883 9.14452C10.7286 9.34283 10.5724 9.54236 10.4199 9.74283L23.1347 21.9591ZM15.7934 4.70546C15.7934 4.70546 15.7809 4.71116 15.7573 4.7186C15.7818 4.70852 15.7934 4.70546 15.7934 4.70546ZM14.4421 4.71114C14.4169 4.70293 14.4036 4.69663 14.4036 4.69663C14.4036 4.69663 14.416 4.7 14.4421 4.71114Z" fill="#FF9008"/>
</svg>
