<svg width="430" height="510" viewBox="0 0 430 510" fill="none" xmlns="http://www.w3.org/2000/svg">
<path d="M153.5 0C147.701 0 143 4.70101 143 10.5V84.5C143 90.299 147.701 95 153.5 95C159.299 95 164 90.299 164 84.5V10.5C164 4.70101 159.299 0 153.5 0Z" fill="#1E7DF2"/>
<path fill-rule="evenodd" clip-rule="evenodd" d="M295.541 485.097L376.209 405.591C378.85 403.952 381.339 401.974 383.613 399.655L418.001 364.584C433.275 349.007 433.029 323.999 417.452 308.725C408.676 300.119 396.905 296.441 385.568 297.655C394.993 282.307 392.943 261.951 379.537 248.806C369.814 239.272 356.416 235.786 344.004 238.3C352.505 223.126 350.193 203.568 337.178 190.806C332.685 186.4 327.406 183.286 321.803 181.458L375.707 127.962C392.839 110.96 392.025 83.0148 373.932 67.0391C357.419 52.4586 332.419 53.2183 316.822 68.7745L159.839 225.345C157.341 215.626 153.824 201.197 149.247 180.711C143.782 156.249 123.853 140.856 103.529 135.419C83.6011 130.088 59.3946 133.509 46.4128 151.957L44.4997 154.676V349.587L6.79103 386.518C-1.60091 394.737 -1.61971 408.241 6.74933 416.483L94.1389 502.548C98.6834 507.024 104.823 509.507 111.201 509.448L239.776 508.261C260.666 508.068 280.663 499.762 295.541 485.097ZM360.032 82.7808C351.826 75.535 339.402 75.9125 331.651 83.6432L169.73 245.139C182.499 257.837 195.903 276.462 201.792 298.459C208.65 324.07 205.02 353.36 180.566 381.372C176.752 385.74 170.056 385.644 166 381.5V381.5C161.944 377.356 162.076 370.742 165.82 366.314C184.639 344.059 186.471 322.432 181.507 303.891C175.731 282.316 160.378 263.862 147.856 253.631L145.458 251.671L144.507 248.724L154.5 245.5C144.507 248.724 144.506 248.721 144.506 248.721L144.505 248.718L144.502 248.71L144.496 248.691L144.479 248.636C144.465 248.591 144.446 248.531 144.422 248.455C144.401 248.388 144.376 248.307 144.347 248.214C144.311 248.098 144.269 247.962 144.221 247.805C144.048 247.238 143.798 246.401 143.468 245.262C142.809 242.983 141.833 239.494 140.532 234.544C137.931 224.647 134.025 208.893 128.752 185.289C125.393 170.251 112.822 159.644 98.102 155.706C84.4244 152.047 72.167 154.833 65.4997 161.732V353.998C65.4997 353.998 65.4997 354 54.9997 354H65.4997V358.413L21.4848 401.521L109.762 488.46L239.582 487.262C255.023 487.119 269.803 480.98 280.8 470.141L342.491 409.338C337.125 407.486 332.076 404.442 327.754 400.204C317.39 390.041 313.813 375.569 317.079 362.432C303.572 366.753 288.184 363.635 277.355 353.017C264.34 340.255 262.028 320.697 270.529 305.523C258.117 308.038 244.719 304.551 234.996 295.017C219.419 279.743 219.173 254.734 234.447 239.158L252.65 220.594L252.603 220.547L256.024 217.152L281.319 191.355C282.946 189.697 284.682 188.212 286.506 186.901L360.915 113.057C369.428 104.607 369.024 90.72 360.032 82.7808ZM399.629 353.022L399.779 353.173L403.007 349.881C410.16 342.586 410.045 330.873 402.75 323.72C395.454 316.566 383.741 316.681 376.588 323.977L342.199 359.048C335.046 366.343 335.161 378.056 342.456 385.209C348.188 390.829 356.646 391.963 363.477 388.654L399.629 353.022ZM299.875 203.22L270.918 231.957L249.441 253.861C242.288 261.156 242.403 272.869 249.698 280.022C256.994 287.176 268.707 287.06 275.86 279.765L322.732 231.963C329.886 224.667 329.771 212.954 322.475 205.801C316.293 199.739 306.938 198.897 299.875 203.22ZM338.673 264.058C345.826 256.763 357.539 256.647 364.835 263.801C372.13 270.954 372.245 282.667 365.092 289.963L318.219 337.765C311.066 345.06 299.353 345.176 292.058 338.022C284.762 330.869 284.647 319.156 291.801 311.861L338.673 264.058Z" fill="#1E7DF2"/>
<path d="M63.1951 67.044C59.0946 62.9435 59.0946 56.2953 63.1951 52.1948C67.2956 48.0942 73.9439 48.0942 78.0444 52.1948L99.6001 73.7505C103.701 77.851 103.701 84.4993 99.6001 88.5998C95.4996 92.7003 88.8514 92.7003 84.7509 88.5998L63.1951 67.044Z" fill="#1E7DF2"/>
<path d="M243.829 52.1948C247.93 56.2953 247.93 62.9435 243.829 67.044L222.274 88.5998C218.173 92.7003 211.525 92.7003 207.424 88.5998C203.324 84.4993 203.324 77.851 207.424 73.7505L228.98 52.1948C233.081 48.0942 239.729 48.0942 243.829 52.1948Z" fill="#1E7DF2"/>
</svg>
