<svg width="37" height="37" viewBox="0 0 37 37" fill="none" xmlns="http://www.w3.org/2000/svg"><path d="M26.3426 0.579712H10.9589C5.07081 0.579712 0.279999 5.27659 0.279999 11.0422V26.1242C0.279999 31.8969 5.05646 36.5797 10.9446 36.5797H26.3282C32.2164 36.5797 37 31.8969 37 26.1172V11.0422C37 5.27659 32.2235 0.579712 26.3426 0.579712ZM34.1312 26.1313C34.1312 30.35 30.6314 33.7742 26.3354 33.7742H23.4093V22.3414H26.7514C27.3825 22.3414 27.9132 21.8985 28.0136 21.2867L28.322 19.4446C28.4511 18.6781 27.8487 17.9821 27.0598 17.9821H23.4093V14.9586C23.4093 13.7914 24.3703 12.8492 25.5609 12.8492H27.2176C27.9276 12.8492 28.5013 12.2867 28.5013 11.5906V9.74846C28.5013 9.05237 27.9276 8.48987 27.2176 8.48987H25.5609C21.9104 8.48987 18.9627 11.3867 18.9627 14.9727V17.9821H15.9434C15.2334 17.9821 14.6596 18.5446 14.6596 19.2407V21.0828C14.6596 21.7789 15.2334 22.3414 15.9434 22.3414H18.9627V33.7672H10.9446C6.64145 33.7672 3.14875 30.336 3.14875 26.1242V11.0422C3.14875 6.82346 6.64862 3.39924 10.9446 3.39924H26.3282C30.6314 3.39924 34.1241 6.83049 34.1241 11.0422L34.1312 26.1313Z" fill="#F9FAFB"></path></svg>