<svg width="32" height="36" viewBox="0 0 32 36" fill="none" xmlns="http://www.w3.org/2000/svg">
<path d="M30.219 4.26758L22.4918 4.26758C21.8247 4.26758 21.2839 4.80837 21.2839 5.47547L21.2839 13.2027C21.2839 13.9818 21.9155 14.6134 22.6947 14.6134C23.4739 14.6134 24.1055 13.9818 24.1055 13.2027L24.1056 9.91088C24.9921 10.7974 32.9718 18.7775 24.0663 26.3826C23.1552 27.1607 23.0093 28.5658 23.8565 29.413C24.5364 30.093 25.6226 30.1674 26.3443 29.5319C38.8069 18.5568 26.4568 7.08917 26.4568 7.08917L30.219 7.08918C30.9981 7.08918 31.6298 6.45754 31.6298 5.67838C31.6298 4.89921 30.9981 4.26758 30.219 4.26758Z" fill="#F42449"/>
<path d="M0.592285 32.9539C0.592285 34.2525 1.64499 35.3052 2.94362 35.3052C4.24225 35.3052 5.29496 34.2525 5.29496 32.9539V29.1949C6.88199 28.733 8.33039 27.9454 9.56295 26.9094L12.1639 29.5104C13.0822 30.4287 14.571 30.4287 15.4892 29.5104C16.4075 28.5922 16.4075 27.1034 15.4892 26.1851L12.5033 23.1992C13.1055 22.0071 13.5107 20.6984 13.676 19.3161H17.0516C18.3503 19.3161 19.403 18.2634 19.403 16.9648C19.403 15.6662 18.3503 14.6135 17.0516 14.6135H13.2927C12.9978 13.6005 12.5703 12.644 12.0302 11.7641C12.0759 11.7248 12.1205 11.6836 12.1638 11.6403L15.4891 8.31499C16.4074 7.39674 16.4074 5.90795 15.4891 4.9897C14.5708 4.07144 13.0821 4.07144 12.1638 4.9897L8.83855 8.31499L8.82466 8.32896C7.76535 7.573 6.57527 6.98844 5.29496 6.61575V2.8568C5.29496 1.55819 4.24225 0.505463 2.94362 0.505463C1.64499 0.505463 0.592285 1.55819 0.592285 2.8568V9.57223C0.592285 10.3062 1.26915 10.8513 2.00309 10.8513C5.89892 10.8513 9.05709 14.0095 9.05709 17.9053C9.05709 21.8012 5.89892 24.9593 2.00309 24.9593C1.26915 24.9593 0.592285 25.5045 0.592285 26.2385V32.9539Z" fill="#F42449"/>
<path d="M4.35442 17.4351C4.35442 18.474 3.51224 19.3161 2.47335 19.3161C1.43447 19.3161 0.592285 18.474 0.592285 17.4351C0.592285 16.3962 1.43447 15.554 2.47335 15.554C3.51224 15.554 4.35442 16.3962 4.35442 17.4351Z" fill="#F42449"/>
</svg>
