<svg width="36" height="37" viewBox="0 0 36 37" fill="none" xmlns="http://www.w3.org/2000/svg"><path d="M25.5495 0.579712H10.4575C4.69076 0.579712 0 5.26956 0 11.0352V26.1172C0 31.8899 4.69076 36.5797 10.4575 36.5797H25.5425C31.3092 36.5797 36 31.8899 36 26.1242V11.0352C36.007 5.26956 31.3163 0.579712 25.5495 0.579712ZM33.194 26.1242C33.194 30.343 29.7621 33.7672 25.5495 33.7672H10.4575C6.24497 33.7672 2.81305 30.336 2.81305 26.1242V11.0352C2.81305 6.82346 6.24497 3.39221 10.4575 3.39221H25.5425C29.7621 3.39221 33.1869 6.82346 33.1869 11.0352L33.194 26.1242ZM18.0035 8.87659C12.6517 8.87659 8.29849 13.2289 8.29849 18.5797C8.29849 23.9305 12.6517 28.2828 18.0035 28.2828C23.3553 28.2828 27.7085 23.9305 27.7085 18.5797C27.7085 13.2289 23.3553 8.87659 18.0035 8.87659ZM18.0035 25.4703C14.2059 25.4703 11.1115 22.3766 11.1115 18.5797C11.1115 14.7828 14.2059 11.6891 18.0035 11.6891C21.8011 11.6891 24.8955 14.7828 24.8955 18.5797C24.8955 22.3766 21.8011 25.4703 18.0035 25.4703ZM27.8492 7.32971C28.6228 7.32971 29.2557 7.96252 29.2557 8.73596C29.2557 9.5094 28.6228 10.1422 27.8492 10.1422C27.0756 10.1422 26.4427 9.5094 26.4427 8.73596C26.4427 7.96252 27.0756 7.32971 27.8492 7.32971Z" fill="#F9FAFB"></path></svg>