<svg width="37" height="37" viewBox="0 0 37 37" fill="none" xmlns="http://www.w3.org/2000/svg"><path d="M25.8225 0.579712H10.7375C4.97076 0.579712 0.279999 5.27047 0.279999 11.0372V26.1222C0.279999 31.889 4.97076 36.5797 10.7375 36.5797H25.8225C31.5892 36.5797 36.28 31.889 36.28 26.1222V11.0372C36.287 5.27047 31.5892 0.579712 25.8225 0.579712ZM33.474 26.1292C33.474 30.3488 30.0421 33.7737 25.8295 33.7737H10.7445C6.52497 33.7737 3.10008 30.3418 3.10008 26.1292V11.0372C3.10008 6.81765 6.532 3.39276 10.7445 3.39276H25.8295C30.0491 3.39276 33.474 6.82468 33.474 11.0372V26.1292ZM19.1767 17.2822C20.4847 15.6506 22.6226 15.1654 24.4863 16.0515C25.4427 16.5086 25.9702 17.3033 26.1741 18.3019C26.3148 18.97 26.3992 19.6522 26.4132 20.3344C26.4484 22.1347 26.4273 23.9421 26.4273 25.7495C26.4273 26.3683 26.0194 26.7692 25.3935 26.7692H24.1347C23.4947 26.7692 23.0938 26.3683 23.0938 25.7284C23.0938 24.1812 23.0938 22.634 23.0868 21.0868C23.0868 20.7422 23.0516 20.3976 22.9954 20.053C22.8055 18.9208 22.053 18.3863 20.9207 18.5692C19.9995 18.7168 19.465 19.2443 19.2892 20.2218C19.2188 20.6016 19.1907 20.9884 19.1907 21.3752C19.1767 22.8098 19.1837 24.2445 19.1837 25.6791C19.1837 26.3824 18.7969 26.7692 18.0936 26.7692C17.6928 26.7692 17.2849 26.7762 16.884 26.7692C16.3073 26.7622 15.8995 26.3543 15.8995 25.7706V16.8532C15.8995 16.2554 16.3073 15.8475 16.8981 15.8475C17.3271 15.8405 17.749 15.8405 18.178 15.8475C18.7688 15.8546 19.1767 16.2554 19.1837 16.8532C19.1767 16.9798 19.1767 17.1064 19.1767 17.2822ZM10.3859 21.2838V16.9376C10.3859 16.2343 10.7727 15.8475 11.4759 15.8475C11.912 15.8475 12.348 15.8405 12.777 15.8475C13.3536 15.8546 13.7686 16.2625 13.7686 16.8391V25.7776C13.7686 26.3543 13.3536 26.7622 12.777 26.7692C12.3198 26.7762 11.8627 26.7762 11.3986 26.7692C10.7938 26.7622 10.3859 26.3613 10.3859 25.7495V21.2838ZM12.13 14.3496C11.0399 14.3496 10.1468 13.4635 10.1468 12.3734C10.1468 11.2834 11.0329 10.3902 12.1229 10.3902C13.213 10.3902 14.1061 11.2763 14.1061 12.3664C14.1061 13.4564 13.22 14.3496 12.13 14.3496Z" fill="#F9FAFB"></path></svg>