<svg width="31" height="32" viewBox="0 0 31 32" fill="none" xmlns="http://www.w3.org/2000/svg">
<path fill-rule="evenodd" clip-rule="evenodd" d="M28.2667 0C29.4449 0 30.4 0.955126 30.4 2.13333L30.4 29.8667C30.4 31.0449 29.4449 32 28.2667 32C27.0885 32 26.1333 31.0449 26.1333 29.8667L26.1333 2.13333C26.1333 0.955126 27.0885 1.27157e-07 28.2667 0ZM10.6667 4.26667C11.8449 4.26667 12.8 5.22179 12.8 6.4L12.8 26.1333C12.8 27.3115 11.8449 28.2667 10.6667 28.2667C9.48846 28.2667 8.53333 27.3115 8.53333 26.1333L8.53333 6.4C8.53333 5.22179 9.48846 4.26667 10.6667 4.26667ZM19.7333 8.53333C20.9115 8.53333 21.8667 9.48846 21.8667 10.6667V21.8667C21.8667 23.0449 20.9115 24 19.7333 24C18.5551 24 17.6 23.0449 17.6 21.8667V10.6667C17.6 9.48846 18.5551 8.53333 19.7333 8.53333ZM2.13333 11.2C3.31154 11.2 4.26667 12.1551 4.26667 13.3333V19.2C4.26667 20.3782 3.31154 21.3333 2.13333 21.3333C0.955126 21.3333 0 20.3782 0 19.2L2.54313e-07 13.3333C2.54313e-07 12.1551 0.955126 11.2 2.13333 11.2Z" fill="#FF9008"/>
</svg>
