<svg width="510" height="389" viewBox="0 0 510 389" fill="none" xmlns="http://www.w3.org/2000/svg">
<path d="M444.851 49.0971C445.448 49.6284 446.041 50.1633 446.63 50.7018C448.626 52.5237 450.583 54.3871 452.5 56.2906C454.987 58.759 457.407 61.2949 459.757 63.8957C468.426 73.487 476.154 83.961 482.801 95.1821C498.622 121.89 507.807 151.963 509.653 182.869C509.731 184.17 509.796 185.473 509.847 186.776C509.934 188.969 509.984 191.165 509.997 193.364C510.017 196.874 509.943 200.377 509.775 203.872C508.287 234.794 499.454 264.969 483.947 291.858C477.049 303.818 468.931 314.955 459.755 325.107C457.405 327.707 454.986 330.242 452.5 332.709C451.23 333.97 449.942 335.214 448.638 336.439C447.391 337.61 446.128 338.765 444.851 339.903C434.736 348.913 423.666 356.875 411.802 363.63C385.636 378.528 356.427 387.089 326.5 388.715C323.009 388.905 319.508 389 316.002 389H316C315.121 389 314.242 388.994 313.362 388.982C310.737 388.946 308.115 388.857 305.5 388.715C280.775 387.372 256.575 381.297 234.195 370.862L232.5 370C232.5 370 228.912 368.078 225.046 366.006C219.849 363.22 218.111 356.868 221.156 351.817C224.041 347.032 230.123 345.274 235.116 347.783L245.5 353L246.111 353.212C264.861 361.517 284.97 366.428 305.5 367.68V346.5C305.5 340.701 310.201 336 316 336C321.799 336 326.5 340.701 326.5 346.5V367.68C352.781 366.078 378.413 358.475 401.411 345.381C411.744 339.498 421.401 331.588 430.25 323.783L416.909 309.335C413.039 305.143 413.226 298.627 417.33 294.664C421.567 290.573 428.34 290.768 432.334 295.096L445.13 308.961C452.924 300.194 459.842 291.62 465.756 281.366C479.341 257.81 487.186 231.422 488.721 204.35L470.736 204.759C464.938 204.891 460.132 200.298 460 194.5C459.868 188.703 464.461 183.896 470.259 183.764L488.642 183.346C486.889 156.041 478.715 129.488 464.733 105.885C459.074 96.3313 452.537 87.3855 445.231 79.1526L432.345 92.6536C428.345 96.8452 421.705 97.004 417.509 93.0086C413.306 89.0065 413.146 82.3534 417.153 78.1548L430.361 64.3153C420.978 56.0245 410.687 48.7443 399.648 42.6292C377.091 30.1334 352.095 22.8805 326.5 21.3198V41C326.5 46.799 321.799 51.5 316 51.5C310.201 51.5 305.5 46.799 305.5 41V21.3199C283.959 22.6334 262.894 27.9752 243.383 37.0249L243.359 37L232.665 42.0912C227.832 44.3917 222.043 42.6883 219.226 38.1372C216.18 33.2153 217.784 26.9054 222.812 24.0376C224.317 23.179 225.422 22.5477 225.5 22.5C225.5 22.5 226.109 22.009 232.145 19.1081C255.081 8.08595 280.004 1.67052 305.5 0.285087C307.363 0.183886 309.228 0.109524 311.096 0.0621661C312.732 0.0206993 314.367 7.92742e-06 316 0H316.002C319.508 1.70469e-05 323.009 0.0953326 326.5 0.285038C355.657 1.86938 384.151 10.0373 409.824 24.2596C422.434 31.245 434.173 39.5855 444.851 49.0971Z" fill="#1E7DF2"/>
<path d="M123 71.5C123 65.701 127.701 61 133.5 61H242.5C248.299 61 253 65.701 253 71.5C253 77.299 248.299 82 242.5 82H133.5C127.701 82 123 77.299 123 71.5Z" fill="#1E7DF2"/>
<path d="M123 316.5C123 310.701 127.701 306 133.5 306H242.5C248.299 306 253 310.701 253 316.5C253 322.299 248.299 327 242.5 327H133.5C127.701 327 123 322.299 123 316.5Z" fill="#1E7DF2"/>
<path d="M61 132.5C61 126.701 65.701 122 71.5 122H228.5C234.299 122 239 126.701 239 132.5C239 138.299 234.299 143 228.5 143H71.5C65.701 143 61 138.299 61 132.5Z" fill="#1E7DF2"/>
<path d="M61 255.5C61 249.701 65.701 245 71.5 245H228.5C234.299 245 239 249.701 239 255.5C239 261.299 234.299 266 228.5 266H71.5C65.701 266 61 261.299 61 255.5Z" fill="#1E7DF2"/>
<path d="M0 193.5C0 187.701 4.70101 183 10.5 183H214.5C220.299 183 225 187.701 225 193.5C225 199.299 220.299 204 214.5 204H10.5C4.70101 204 0 199.299 0 193.5Z" fill="#1E7DF2"/>
<path fill-rule="evenodd" clip-rule="evenodd" d="M316.5 214C327.27 214 336 205.27 336 194.5C336 183.73 327.27 175 316.5 175C305.73 175 297 183.73 297 194.5C297 205.27 305.73 214 316.5 214ZM316.5 236C339.42 236 358 217.42 358 194.5C358 171.58 339.42 153 316.5 153C293.58 153 275 171.58 275 194.5C275 217.42 293.58 236 316.5 236Z" fill="#1E7DF2"/>
<path d="M273.054 223.677C268.966 227.789 268.984 234.437 273.096 238.526C277.209 242.615 283.857 242.596 287.946 238.484L296.749 229.638C290.667 225.969 284.601 221.785 281.078 215.608L273.054 223.677Z" fill="#1E7DF2"/>
<path d="M336.48 158.887C342.678 162.377 347.89 167.413 351.592 173.472L401.876 122.904C405.965 118.792 405.946 112.143 401.834 108.054C397.722 103.966 391.074 103.984 386.985 108.096L336.48 158.887Z" fill="#1E7DF2"/>
</svg>
