<svg width="37" height="37" viewBox="0 0 37 37" fill="none" xmlns="http://www.w3.org/2000/svg"><path d="M26.2625 0.579712H11.1775C5.41076 0.579712 0.720001 5.27047 0.720001 11.0372V26.1222C0.720001 31.889 5.41076 36.5797 11.1775 36.5797H26.2625C32.0292 36.5797 36.72 31.889 36.72 26.1222V11.0372C36.727 5.27047 32.0292 0.579712 26.2625 0.579712ZM33.914 26.1292C33.914 30.3488 30.4821 33.7737 26.2695 33.7737H11.1845C6.96497 33.7737 3.54008 30.3418 3.54008 26.1292V11.0372C3.54008 6.81765 6.972 3.39276 11.1845 3.39276H26.2695C30.4891 3.39276 33.914 6.82468 33.914 11.0372V26.1292ZM22.5563 8.28747C22.6196 10.8755 24.3426 12.9009 26.8884 13.3791C27.1345 13.4213 27.3807 13.4283 27.6268 13.4494C27.7182 13.4564 27.7745 13.4705 27.7745 13.583C27.7745 14.6309 27.7675 15.6788 27.7675 16.7266C27.7675 16.7477 27.7534 16.7618 27.7393 16.7969C26.804 16.804 25.9038 16.6493 25.0177 16.3539C24.1316 16.0585 23.3299 15.6155 22.5493 15.0388V15.292C22.5563 17.6338 22.5563 19.9757 22.5704 22.3175C22.5774 23.6045 22.3031 24.8141 21.5858 25.8901C20.2004 27.9788 18.2312 28.9915 15.7276 28.872C12.9638 28.7383 10.629 26.8395 9.89054 24.1953C8.96927 20.8829 10.9384 17.3736 14.2578 16.4242C15.1087 16.1781 15.9667 16.1007 16.8458 16.1921C16.9161 16.1992 16.9935 16.2203 17.0708 16.2343V19.617C17.0076 19.603 16.9513 19.5959 16.9021 19.5819C14.8978 19.0755 13.013 20.5875 13.0763 22.6481C13.1255 24.1742 14.3492 25.426 15.9105 25.5596C17.4014 25.6862 18.829 24.6032 19.1033 23.1263C19.1525 22.8731 19.1666 22.6059 19.1666 22.3457C19.1736 17.7604 19.1736 13.1751 19.1736 8.58987C19.1736 8.49141 19.1806 8.38592 19.1877 8.28747C20.3269 8.28747 21.4381 8.28747 22.5563 8.28747Z" fill="#F9FAFB"></path></svg>