<svg width="502" height="357" viewBox="0 0 502 357" fill="none" xmlns="http://www.w3.org/2000/svg">
<path fill-rule="evenodd" clip-rule="evenodd" d="M172.827 85.9779C171.246 86.3799 169.653 86.7848 168.047 87.1865C152.585 91.052 134.717 88.5824 121.717 85.6863C115.022 84.1949 109.207 82.4928 105.059 81.1624C102.98 80.4956 101.306 79.9179 100.135 79.5003C99.5494 79.2913 99.0883 79.1221 98.7642 79.0015C98.6021 78.9411 98.4742 78.8929 98.3819 78.8578L98.2703 78.8153L98.2349 78.8017L98.2174 78.795C98.2153 78.7941 98.2133 78.7934 102 69C105.787 59.2066 105.784 59.2054 105.784 59.2054L105.835 59.2249C105.886 59.2444 105.972 59.2768 106.091 59.321C106.329 59.4096 106.699 59.5456 107.189 59.7204C108.17 60.0704 109.63 60.5747 111.472 61.1657C115.168 62.351 120.353 63.8676 126.283 65.1887C138.533 67.9176 152.415 69.448 162.953 66.8135C164.637 66.3925 166.347 65.9536 168.082 65.5081C192.656 59.1981 222.43 51.5529 258.646 74.6468L247.355 92.3532C218.962 74.2479 197.29 79.7581 172.827 85.9779ZM86.5176 227.26L47.0176 196.26L59.9826 179.74L99.4826 210.74L86.5176 227.26ZM398.539 212.746L447.039 186.746L456.961 205.254L408.461 231.254L398.539 212.746Z" fill="#1E7DF2"/>
<path fill-rule="evenodd" clip-rule="evenodd" d="M406.976 56.4911L465.032 196.928L478.461 191.667L451.659 32.3998L406.976 56.4911ZM380.329 47.0004L453.5 224L502 205L467.502 0L380.329 47.0004Z" fill="#1E7DF2"/>
<path fill-rule="evenodd" clip-rule="evenodd" d="M95.8967 56.4911L37.8407 196.928L24.412 191.667L51.214 32.3998L95.8967 56.4911ZM122.544 47.0004L49.373 224L0.873047 205L35.3711 7.08272e-06L122.544 47.0004Z" fill="#1E7DF2"/>
<path fill-rule="evenodd" clip-rule="evenodd" d="M400.067 82.6809C400.071 82.679 400.076 82.6772 396.001 73C391.926 63.3228 391.931 63.321 391.935 63.3193L391.956 63.3105L391.975 63.3026C391.984 63.2987 391.987 63.2976 391.983 63.2992C391.975 63.3024 391.941 63.3163 391.88 63.3399C391.758 63.387 391.531 63.4726 391.203 63.5883C390.546 63.8197 389.482 64.1708 388.038 64.5739C385.148 65.3804 380.741 66.3927 375.012 67.0733C363.574 68.4324 346.82 68.4761 326.264 62.87C302.446 56.3739 283.923 57.882 271.018 61.3621C264.607 63.0908 259.675 65.2807 256.242 67.1217C254.526 68.0419 253.185 68.8751 252.219 69.5209C251.888 69.742 251.601 69.9412 251.358 70.1146L203.739 95.8547C184.435 106.289 177.391 130.495 188.082 149.658C197.658 166.822 218.427 174.292 236.741 167.159L287.92 147.227C296.331 143.95 305.887 146.042 312.161 152.533L397.232 240.553C397.898 241.92 398.251 245.144 394.762 249.383C391.729 253.067 386.702 255.939 380.411 255.852C380.144 255.599 379.854 255.324 379.542 255.026C377.459 253.036 374.559 250.218 371.099 246.828C364.188 240.056 355.146 231.108 346.15 222.175C337.157 213.245 328.226 204.345 321.542 197.676C318.2 194.342 315.42 191.566 313.477 189.624C312.505 188.653 311.742 187.891 311.222 187.371L310.426 186.576C310.426 186.576 310.426 186.575 303.001 194C295.576 201.425 295.577 201.425 295.577 201.425L296.376 202.224C296.897 202.745 297.661 203.509 298.635 204.481C300.581 206.426 303.364 209.205 306.71 212.543C313.401 219.218 322.344 228.13 331.352 237.075C340.356 246.017 349.439 255.006 356.403 261.828C359.88 265.235 362.856 268.128 365.038 270.212C365.199 270.366 365.356 270.516 365.51 270.662C364.916 277.388 361.406 282.142 357.239 284.938C352.086 288.396 347.75 288.003 345.98 287.164L294.779 237.931C290.598 233.912 283.951 234.042 279.932 238.222C275.913 242.402 276.043 249.049 280.223 253.069L327.327 298.361C324.212 306.473 321.694 310.384 319.301 312.382C317.493 313.89 314.698 315.151 307.75 314.507L273.768 281.921C269.583 277.908 262.936 278.047 258.922 282.233C254.909 286.418 255.048 293.065 259.234 297.079L287.96 324.624C285.471 326.953 283.19 328.916 281.056 330.537C276.939 333.663 273.912 335.086 271.572 335.603C268.043 336.382 262.9 335.765 252.818 325.969C248.659 321.928 242.012 322.024 237.971 326.183C233.929 330.342 234.025 336.989 238.184 341.031C249.949 352.461 262.079 359.206 276.101 356.109C282.536 354.688 288.353 351.364 293.755 347.262C298.028 344.018 302.383 340.019 306.903 335.507C316.499 336.23 325.302 334.725 332.756 328.505C338.523 323.692 342.524 316.745 345.859 308.622C353.982 309.425 362.425 306.748 368.94 302.376C377.122 296.886 383.763 287.971 385.886 276.527C396.377 275.169 405.182 269.768 410.976 262.729C418.384 253.729 422.439 239.443 413.995 227.826L413.563 227.232L327.261 137.939C315.107 125.364 296.594 121.312 280.298 127.658L229.12 147.591C220.577 150.918 210.888 147.434 206.421 139.427C201.434 130.488 204.72 119.196 213.725 114.329L262.824 87.7884L263.479 87.2645C263.534 87.2241 263.672 87.1249 263.89 86.9791C264.326 86.6873 265.086 86.2081 266.167 85.6283C268.328 84.4693 271.771 82.9091 276.486 81.6378C285.83 79.1179 300.558 77.6261 320.739 83.13C344.183 89.5239 363.678 89.5676 377.49 87.9267C384.386 87.1073 389.854 85.8696 393.683 84.801C395.598 84.2666 397.105 83.774 398.178 83.396C398.715 83.207 399.143 83.0466 399.461 82.9238C399.619 82.8624 399.75 82.8104 399.853 82.7689C399.904 82.7482 399.948 82.73 399.985 82.7147L400.036 82.6938L400.057 82.6849L400.067 82.6809ZM303.001 194L295.576 201.425C291.476 197.324 291.476 190.676 295.576 186.575C299.677 182.475 306.325 182.475 310.426 186.575L303.001 194Z" fill="#1E7DF2"/>
<path fill-rule="evenodd" clip-rule="evenodd" d="M109.3 189.086C121.171 176.943 140.639 176.723 152.782 188.594C164.925 200.465 165.145 219.933 153.274 232.076L137.542 248.167C125.671 260.31 106.203 260.53 94.0604 248.659C81.9174 236.788 81.6972 217.32 93.5686 205.177L109.3 189.086ZM138.101 203.61C134.252 199.846 128.08 199.916 124.316 203.766L108.585 219.857C104.821 223.707 104.891 229.879 108.741 233.643C112.591 237.406 118.762 237.336 122.526 233.487L138.257 217.395C142.021 213.546 141.951 207.374 138.101 203.61Z" fill="#1E7DF2"/>
<path fill-rule="evenodd" clip-rule="evenodd" d="M215.708 286.024C227.147 274.323 245.907 274.111 257.608 285.55C269.309 296.99 269.521 315.749 258.082 327.45L243.838 342.02C232.399 353.721 213.639 353.933 201.938 342.494C190.237 331.054 190.025 312.295 201.464 300.594L215.708 286.024ZM242.928 300.566C239.52 297.235 234.056 297.296 230.724 300.704L216.48 315.274C213.149 318.682 213.21 324.146 216.618 327.477C220.026 330.809 225.49 330.747 228.822 327.339L243.066 312.77C246.397 309.362 246.336 303.898 242.928 300.566Z" fill="#1E7DF2"/>
<path fill-rule="evenodd" clip-rule="evenodd" d="M191.142 240.983C202.582 229.282 221.341 229.07 233.042 240.509C244.744 251.949 244.956 270.708 233.516 282.409L203.709 312.898C192.27 324.6 173.51 324.812 161.809 313.372C150.108 301.933 149.896 283.173 161.335 271.472L191.142 240.983ZM218.362 255.525C214.954 252.193 209.49 252.255 206.159 255.663L176.351 286.153C173.02 289.561 173.082 295.024 176.49 298.356C179.898 301.688 185.361 301.626 188.693 298.218L218.5 267.729C221.832 264.321 221.77 258.857 218.362 255.525Z" fill="#1E7DF2"/>
<path fill-rule="evenodd" clip-rule="evenodd" d="M160.5 206.339C171.939 194.637 190.699 194.425 202.4 205.865C214.101 217.304 214.313 236.063 202.874 247.765L171.239 280.124C159.799 291.825 141.04 292.037 129.339 280.598C117.637 269.158 117.425 250.399 128.865 238.698L160.5 206.339ZM187.72 220.881C184.312 217.549 178.848 217.611 175.516 221.019L143.881 253.378C140.549 256.786 140.611 262.25 144.019 265.582C147.427 268.913 152.891 268.852 156.222 265.444L187.858 233.084C191.189 229.676 191.128 224.213 187.72 220.881Z" fill="#1E7DF2"/>
</svg>
