<svg width="32" height="32" viewBox="0 0 32 32" fill="none" xmlns="http://www.w3.org/2000/svg">
<path fill-rule="evenodd" clip-rule="evenodd" d="M16 3.76471C12.755 3.76471 9.6429 5.05378 7.34834 7.34834C5.05378 9.6429 3.76471 12.755 3.76471 16C3.76471 17.6068 4.08118 19.1978 4.69606 20.6822C5.31094 22.1667 6.21219 23.5155 7.34834 24.6517C8.48449 25.7878 9.8333 26.6891 11.3178 27.3039C12.8022 27.9188 14.3932 28.2353 16 28.2353C17.6068 28.2353 19.1978 27.9188 20.6822 27.3039C22.1667 26.6891 23.5155 25.7878 24.6517 24.6517C25.7878 23.5155 26.6891 22.1667 27.3039 20.6822C27.9188 19.1978 28.2353 17.6068 28.2353 16C28.2353 12.755 26.9462 9.6429 24.6517 7.34834C22.3571 5.05378 19.245 3.76471 16 3.76471ZM4.68629 4.68629C7.68687 1.68571 11.7565 0 16 0C20.2435 0 24.3131 1.68571 27.3137 4.68629C30.3143 7.68687 32 11.7565 32 16C32 18.1011 31.5862 20.1817 30.7821 22.1229C29.978 24.0641 28.7994 25.828 27.3137 27.3137C25.828 28.7994 24.0641 29.978 22.1229 30.7821C20.1817 31.5862 18.1011 32 16 32C13.8989 32 11.8183 31.5862 9.87707 30.7821C7.93585 29.978 6.17203 28.7994 4.68629 27.3137C3.20055 25.828 2.022 24.0641 1.21793 22.1229C0.413852 20.1817 0 18.1012 0 16C0 11.7565 1.68571 7.68687 4.68629 4.68629ZM16 6.72269C17.0396 6.72269 17.8824 7.56545 17.8824 8.60504V17.1765C17.8824 18.2161 17.0396 19.0588 16 19.0588C14.9604 19.0588 14.1176 18.2161 14.1176 17.1765V8.60504C14.1176 7.56545 14.9604 6.72269 16 6.72269ZM14.1176 21.8824C14.1176 20.8428 14.9604 20 16 20H16.0126C17.0521 20 17.8949 20.8428 17.8949 21.8824V21.8949C17.8949 22.9345 17.0521 23.7773 16.0126 23.7773H16C14.9604 23.7773 14.1176 22.9345 14.1176 21.8949V21.8824Z" fill="#F42449"/>
</svg>
