<svg width="37" height="37" viewBox="0 0 37 37" fill="none" xmlns="http://www.w3.org/2000/svg"><path d="M26.0462 0.579712H10.6667C4.78459 0.579712 8.04333e-06 5.26956 8.04333e-06 11.0352V26.1172C-0.00716523 31.8828 4.78459 36.5797 10.6667 36.5797H26.0533C31.9354 36.5797 36.72 31.8899 36.72 26.1242V11.0422C36.72 5.27659 31.9283 0.579712 26.0462 0.579712ZM33.8507 26.1242C33.8507 30.343 30.3501 33.7672 26.0533 33.7672H10.6667C6.36271 33.7672 2.86932 30.336 2.86932 26.1242V11.0352C2.86932 6.81643 6.36988 3.39221 10.6667 3.39221H26.0533C30.3573 3.39221 33.8507 6.82346 33.8507 11.0352V26.1242ZM13.4858 14.2344V22.925C13.4858 24.2821 14.985 25.1258 16.1829 24.4508L23.8511 20.1055C25.0491 19.4305 25.0491 17.736 23.8511 17.061L16.1829 12.7156C14.9778 12.0266 13.4858 12.8774 13.4858 14.2344ZM16.3551 16.0625L20.8025 18.5797L16.3551 21.0969V16.0625Z" fill="#F9FAFB"></path></svg>